<svg xmlns="http://www.w3.org/2000/svg" viewBox="4799.212 1436.534 721.911 721.911">
  <path fill-rule="evenodd" clip-rule="evenodd" d="M5298.09 1502.13C5296.82 1503.16 5295.04 1504.01 5294.14 1504.03C5292.46 1504.06 5284.41 1508.19 5261.42 1520.8C5240.39 1532.32 5236.27 1533.19 5229.18 1527.55C5222.85 1522.51 5216.79 1520.5 5208 1520.51C5201.67 1520.51 5199.46 1521 5193.85 1523.66C5190.19 1525.39 5184.46 1529.32 5181.11 1532.4C5175.96 1537.14 5174.44 1538 5171.26 1537.99C5169.19 1537.99 5163.97 1539.22 5159.65 1540.74L5151.8 1543.5L5152.47 1550.32C5153.25 1558.32 5151.97 1561.15 5146.56 1563.41C5142.58 1565.08 5140.41 1568.06 5139.48 1573.18C5138.91 1576.26 5139.15 1577.08 5140.9 1578.17C5142.06 1578.89 5143 1580.1 5143 1580.86C5143 1581.62 5144.38 1583.8 5146.06 1585.72C5148.16 1588.11 5149.02 1590.03 5148.81 1591.85L5148.5 1594.5L5136.15 1600.64C5128.63 1604.38 5122.18 1608.36 5119.65 1610.83C5117.37 1613.06 5113.41 1615.77 5110.86 1616.86C5108.31 1617.95 5105.93 1619.31 5105.57 1619.89C5105.21 1620.47 5103.02 1621.43 5100.71 1622.02C5097.54 1622.84 5094.99 1624.69 5090.38 1629.55C5085.84 1634.33 5083.56 1636 5081.59 1636C5080.09 1636 5078.67 1636.69 5078.33 1637.59C5077.39 1640.02 5080.6 1650.25 5085.1 1659.21C5087.33 1663.64 5089.96 1670.42 5090.94 1674.27C5091.91 1678.11 5093.34 1681.6 5094.11 1682.01C5097 1683.56 5107.03 1684.08 5113.16 1683C5123.02 1681.26 5141.87 1675.39 5160.5 1668.26C5182.77 1659.74 5195.93 1655.21 5199.56 1654.82L5202.5 1654.5L5202.16 1658.91C5201.74 1664.52 5200.42 1668 5198.72 1668C5197.98 1668 5196.62 1669.73 5195.69 1671.85C5194.44 1674.67 5192.87 1676.21 5189.82 1677.58C5187.53 1678.61 5184.13 1680.9 5182.26 1682.66C5177.82 1686.85 5171.79 1688.82 5159.12 1690.22L5148.75 1691.36L5147.36 1694.68C5146.47 1696.82 5145.28 1698 5144.04 1698C5142.97 1698 5141.69 1698.74 5141.18 1699.64C5139.79 1702.12 5135.38 1700.66 5134.58 1697.45C5134.03 1695.28 5133.45 1694.93 5130.82 1695.19L5127.7 1695.5L5125.27 1704C5123.6 1709.85 5122.08 1713.12 5120.41 1714.5C5118.54 1716.03 5117.62 1718.34 5116.48 1724.34C5114.67 1733.91 5114.58 1742.07 5116.25 1744.24L5117.5 1745.86L5127.2 1744.4C5132.53 1743.6 5144 1740.66 5152.7 1737.88C5169.47 1732.52 5176.09 1731.43 5198.61 1730.35C5212.47 1729.69 5218.08 1730.23 5220.27 1732.41C5221.28 1733.42 5221.63 1738.64 5221.75 1754.1L5221.89 1774.46L5220.22 1776.31C5217.67 1779.12 5212.91 1780.77 5200.66 1783.07C5188.66 1785.33 5174.66 1789.07 5170.85 1791.04C5166.81 1793.12 5164 1796.26 5164 1798.67C5164 1799.95 5164.39 1801 5164.87 1801C5167.98 1801 5185.37 1797.38 5198.52 1794C5216.8 1789.29 5220.5 1789.01 5221.37 1792.25C5222.46 1796.31 5222.05 1828.55 5220.87 1832.1C5218.75 1838.47 5218.01 1838.6 5210.43 1833.96C5204.83 1830.53 5197.19 1827 5195.37 1827C5195.17 1827 5195 1828.03 5195 1829.28C5195 1833.19 5199.64 1838.7 5205.49 1841.74C5209.05 1843.6 5214 1848.69 5214 1850.51C5214 1851.22 5215.31 1852.26 5216.92 1852.82C5220.78 1854.17 5221.61 1856.04 5222.33 1865.06C5223 1873.32 5222.02 1878.44 5219.05 1882.21L5217.13 1884.65L5219.66 1887.57C5224.12 1892.74 5226.27 1897.96 5225.69 1902.26C5225.4 1904.41 5224.87 1906.47 5224.5 1906.83C5224.13 1907.2 5185.06 1907.86 5137.67 1908.29C5090.27 1908.72 5047.67 1909.12 5043 1909.16C5038.32 1909.21 5014.47 1908.42 4990 1907.42C4943.89 1905.53 4878.47 1905.02 4859.75 1906.4L4849 1907.19V1909.55C4849 1912.51 4848.38 1912.41 4881.34 1914.49C4895.56 1915.39 4916.7 1916.98 4928.32 1918.03L4949.46 1919.94L4990.48 1918.72C5045.86 1917.07 5140.89 1917.12 5161 1918.79C5189.74 1921.19 5224.92 1926.52 5227.23 1928.83C5230.16 1931.76 5233.36 1973.25 5231.98 1990.5C5231.5 1996.55 5231.08 2002.71 5231.05 2004.18C5230.97 2008.56 5228.42 2010.29 5223.21 2009.51C5217.32 2008.63 5214.36 2007.2 5212.49 2004.35C5211.65 2003.06 5210.29 2002 5209.48 2002C5207.68 2002 5207.66 2001.31 5209.23 1995.42L5210.46 1990.81L5208.61 1989.46C5207.59 1988.71 5203.74 1987.8 5200.06 1987.44L5193.36 1986.78L5189.43 1983.32C5180.09 1975.12 5173.36 1973.77 5167.06 1978.83C5161.53 1983.28 5150.57 1989.03 5137.5 1994.34C5120.36 2001.31 5085.44 2013.52 5075.63 2015.97C5063.82 2018.93 5058.38 2020.9 5046.66 2026.51C5041.24 2029.1 5035.09 2031.45 5032.99 2031.73C5030.88 2032.01 5023.91 2031.45 5017.49 2030.48C5003.51 2028.36 4993.04 2028.83 4971.3 2032.52C4955.96 2035.12 4939.56 2039.29 4937.3 2041.17C4935.45 2042.7 4935.69 2045.77 4937.75 2046.84C4939.9 2047.95 4988.63 2049.61 5006.72 2049.19L5019.94 2048.88L5024.76 2053.85C5028.64 2057.86 5030.73 2059.13 5035.54 2060.42C5050.47 2064.42 5052.66 2066.04 5053.71 2073.85C5054.16 2077.22 5054.74 2078.15 5056.72 2078.64C5060.07 2079.49 5067.93 2078.46 5077.53 2075.93L5085.55 2073.82L5097.4 2077.41C5103.92 2079.38 5110.85 2081 5112.8 2081C5119.78 2081 5133.63 2077.77 5141.2 2074.38C5147.62 2071.5 5150.79 2070.76 5160.2 2069.93C5178.34 2068.32 5195.25 2067.05 5198.69 2067.02C5201.01 2067.01 5204.04 2065.37 5209.88 2060.97C5219.62 2053.63 5226.84 2050.14 5228.11 2052.15C5228.58 2052.89 5228.98 2056.54 5228.98 2060.25C5228.99 2063.96 5229.3 2067 5229.66 2067C5230.03 2067 5234.41 2064.59 5239.41 2061.65C5250.2 2055.29 5250.4 2055.21 5260 2053.54C5271.88 2051.46 5276.49 2052.94 5275.82 2058.6L5275.5 2061.31L5263.5 2064.5C5251.73 2067.62 5245.65 2070.16 5241.34 2073.72C5238.88 2075.76 5234 2082.78 5234 2084.29C5234 2084.96 5237.78 2085.02 5245.25 2084.45C5260.47 2083.31 5263.32 2083.46 5282.17 2086.41C5310.32 2090.82 5321.48 2092.09 5343.82 2093.43L5365.5 2094.73L5368.3 2091.75C5371.86 2087.95 5371.47 2086.12 5366.49 2083.27C5357.43 2078.1 5350.95 2076.92 5326.91 2076.1C5314.49 2075.67 5303.8 2075 5303.16 2074.6C5301.63 2073.65 5301.68 2070.51 5303.25 2069.22C5303.94 2068.66 5308.1 2067.68 5312.5 2067.04C5319.1 2066.08 5320.88 2065.42 5322.66 2063.29C5324.35 2061.25 5326.18 2060.51 5331.1 2059.83C5339.02 2058.75 5342 2056.9 5342 2053.05V2050.16L5338.25 2048.97C5330.04 2046.36 5327.96 2043.04 5332 2039C5333.33 2037.66 5335.33 2037 5338.01 2037C5340.86 2037 5344.42 2035.7 5350.33 2032.5C5363.64 2025.31 5370.91 2023.81 5395.34 2023.25L5416.19 2022.77L5422.34 2017.88C5425.73 2015.19 5430.37 2012.02 5432.66 2010.84C5437.72 2008.23 5439 2005.66 5439 1998.14C5439 1994.98 5439.56 1991.67 5440.25 1990.79C5441.66 1989 5450.17 1987.37 5463.3 1986.37C5468.14 1986 5471.74 1985.37 5471.3 1984.97C5470.86 1984.58 5464.65 1982.31 5457.5 1979.94L5444.5 1975.64L5430 1974.89C5396.61 1973.16 5379.77 1974.54 5368.64 1979.93C5363.16 1982.59 5362.57 1982.54 5361.12 1979.36L5359.91 1976.72L5351.71 1977.36C5326.28 1979.33 5323.4 1979.35 5319.89 1977.56C5318.02 1976.61 5313.95 1975.58 5310.83 1975.28C5301.79 1974.41 5297.69 1977.8 5294.09 1989.09C5293.46 1991.07 5291.84 1993.65 5290.47 1994.84C5289.07 1996.05 5288 1998.07 5288 1999.49C5288 2000.87 5287.57 2002 5287.03 2002C5285.73 2002 5284 1998.61 5284 1996.07V1994H5272.06C5258.44 1994 5254.7 1993.08 5255.18 1989.84C5255.4 1988.36 5256.72 1987.27 5259.45 1986.33C5261.62 1985.58 5263.72 1984.46 5264.1 1983.83C5264.94 1982.48 5263.23 1977.37 5259.48 1969.95L5256.74 1964.55L5258.22 1960.52L5259.71 1956.5L5258.4 1949C5257.67 1944.88 5257.06 1936.95 5257.04 1931.38L5257 1921.27L5327.75 1920.7C5378.95 1920.3 5404.03 1919.7 5418.5 1918.55C5442.09 1916.67 5462.54 1914.4 5463.98 1913.52C5465.9 1912.33 5465.09 1909.06 5462.75 1908.59C5459.59 1907.97 5379.79 1906.12 5329 1905.49C5305.62 1905.21 5282.11 1904.7 5276.75 1904.36L5267 1903.74V1900.91C5267 1898.88 5267.98 1897.3 5270.5 1895.29L5274 1892.5V1888.25V1884H5271.69C5270.41 1884 5266.39 1885.8 5262.74 1888C5259.09 1890.2 5255.69 1892 5255.19 1892C5254.68 1892 5253.98 1890.09 5253.63 1887.75C5252.57 1880.66 5251.8 1845.57 5252.68 1844.45C5253.13 1843.88 5255.52 1842.22 5258 1840.77C5266.72 1835.66 5281.32 1819.92 5279.26 1817.86C5277.55 1816.15 5271.28 1816.64 5267.24 1818.79C5253.95 1825.86 5252.82 1826.33 5252.06 1825.11C5251.24 1823.78 5250.01 1803.32 5250 1790.94C5250 1786.44 5250.51 1782.71 5251.25 1781.72C5252.79 1779.68 5267.19 1772.91 5276.01 1770.07C5279.58 1768.93 5286.95 1767.13 5292.37 1766.07C5297.8 1765.02 5302.65 1763.75 5303.16 1763.24C5305.61 1760.79 5296.75 1742.85 5289.46 1735.51C5283.23 1729.22 5278.69 1727 5272.07 1727C5269.25 1727 5264.14 1726.07 5260.72 1724.93C5253.82 1722.63 5237.07 1713.1 5237.03 1711.45C5236.98 1709.82 5242.24 1702.03 5246.96 1696.73C5252.62 1690.37 5269.61 1677.72 5283.53 1669.5C5291.1 1665.04 5295.01 1662.12 5295.38 1660.67C5295.72 1659.32 5298.04 1657.41 5301.51 1655.61C5308.12 1652.17 5314.23 1645.59 5316.63 1639.31C5318.09 1635.48 5318.17 1634.1 5317.17 1630.36C5315.53 1624.21 5311.54 1618.57 5305.91 1614.43C5302.19 1611.71 5300.34 1609.28 5297.66 1603.63C5292.01 1591.74 5287.76 1588.79 5268 1583.07C5264.43 1582.04 5263.99 1576.94 5267.25 1574.37C5268.54 1573.34 5269.91 1571.71 5270.27 1570.74C5270.64 1569.78 5272.87 1567.86 5275.22 1566.48C5305.74 1548.59 5314.29 1542.22 5321.28 1532.13C5325.83 1525.55 5329 1519.41 5329 1517.15C5329 1513.2 5318.64 1506.52 5305.51 1502.01L5300.41 1500.25L5298.09 1502.13ZM4996 1724.5C4969.67 1729.83 4947.56 1747.05 4936.91 1770.54C4922.25 1802.88 4928.64 1840.53 4952.96 1865.03C4963.43 1875.57 4974.3 1881.98 4989.7 1886.65L4998.5 1889.32L5012 1889.31C5022.65 1889.31 5027.16 1888.85 5033.34 1887.17C5073.58 1876.21 5099.78 1838.01 5094.99 1797.28C5089.84 1753.47 5055.22 1722.65 5011.66 1723.09C5006.62 1723.15 4999.57 1723.78 4996 1724.5ZM5253.89 1743.91C5256.52 1745.57 5253.6 1754 5250.4 1754C5248.67 1754 5246 1748.87 5246 1745.55V1743L5249.25 1743.02C5251.04 1743.02 5253.13 1743.43 5253.89 1743.91ZM5024 1925.03C5014.92 1925.41 5004.46 1926.06 5000.75 1926.48L4994 1927.23V1932.08V1936.93L4989.06 1937.59C4985.37 1938.08 4983.46 1938.97 4981.55 1941.12L4978.98 1944H4969.55C4963.98 1944 4959.85 1944.43 4959.46 1945.06C4958.69 1946.31 4960.47 1951.03 4963.64 1956.15C4965.52 1959.19 4967.05 1960.18 4972.7 1962.03C4981.3 1964.84 4985.74 1968.15 4988.11 1973.52C4990.3 1978.47 4991.88 1979 5004.42 1979C5009.45 1979 5013.06 1979.46 5013.8 1980.2C5014.46 1980.86 5015.02 1983.22 5015.03 1985.45C5015.08 1990.27 5017.47 2007.81 5018.19 2008.52C5018.46 2008.8 5022.47 2008.68 5027.09 2008.26L5035.5 2007.5L5036.13 2002.35C5036.47 1999.52 5037.05 1996.72 5037.42 1996.13C5037.78 1995.54 5041.21 1994.13 5045.04 1992.99L5052 1990.92V1988.05V1985.18L5047.75 1984.52C5041.12 1983.48 5040 1982.99 5040 1981.11C5040 1978.25 5044.18 1975.15 5049.78 1973.86L5055 1972.66V1966.94C5055 1958.25 5056.29 1957.19 5070.06 1954.62L5081.5 1952.48L5081.8 1948.4L5082.1 1944.32L5075.55 1942.55C5068.78 1940.72 5067.99 1939.76 5070.08 1935.85C5070.68 1934.74 5070.88 1933.55 5070.53 1933.2C5070.18 1932.85 5066.21 1932.33 5061.7 1932.03L5053.51 1931.5L5051.75 1927.75L5049.98 1924L5045.24 1924.16C5042.63 1924.25 5033.07 1924.64 5024 1925.03Z" fill="#2FC6F5"/>
</svg>
