<svg xmlns="http://www.w3.org/2000/svg" viewBox="1406.684 2526.183 787.637 787.637">
  <path fill-rule="evenodd" clip-rule="evenodd" d="M1643.86 2694.27C1643.78 2694.41 1643.46 2696.1 1643.15 2698.03C1642.84 2699.95 1642.06 2704.6 1641.42 2708.36C1640.78 2712.12 1640.05 2716.77 1639.8 2718.7C1638.83 2726.15 1636.85 2739.3 1635.1 2749.88C1634.65 2752.63 1634 2756.68 1633.65 2758.88C1633.31 2761.08 1632.4 2766.56 1631.62 2771.05C1630.85 2775.55 1630.15 2779.67 1630.07 2780.23C1629.77 2782.11 1627.33 2796.57 1626.15 2803.4C1623.76 2817.22 1623.01 2821.99 1622.67 2825.41C1622.08 2831.47 1621.32 2838.49 1621 2840.92C1620.82 2842.2 1620.38 2845.58 1620 2848.42C1618.25 2861.76 1615.19 2881.06 1610.3 2909.61C1609.54 2914.01 1608.55 2919.94 1608.1 2922.78C1607.65 2925.63 1607.22 2928.18 1607.14 2928.45C1606.94 2929.14 1603.19 2952.98 1601.94 2961.46C1601.77 2962.66 1601.25 2965.96 1600.79 2968.8C1599.09 2979.39 1597.96 2986.51 1596.82 2993.81C1596.18 2997.94 1595.42 3002.66 1595.14 3004.32C1594.86 3005.97 1594.33 3009.27 1593.97 3011.65C1593.61 3014.04 1592.94 3018.39 1592.47 3021.32C1592 3024.26 1591.4 3028.08 1591.14 3029.83C1590.27 3035.56 1589.65 3038.32 1589.15 3038.66C1587.4 3039.86 1572.57 3048.75 1558.3 3057.17C1555.09 3059.06 1549.54 3062.36 1545.96 3064.5C1542.39 3066.64 1535.71 3070.62 1531.13 3073.33C1526.55 3076.05 1521.52 3079.05 1519.96 3080.02C1518.4 3080.98 1515.48 3082.74 1513.46 3083.93C1503.37 3089.9 1496.61 3093.92 1494.96 3094.94C1493.95 3095.56 1490.36 3097.71 1486.98 3099.72C1469.37 3110.16 1462.43 3114.44 1461.84 3115.26C1461.44 3115.8 1461.12 3116.91 1461.03 3117.99C1460.85 3120.13 1461.58 3121.62 1463.54 3123.12L1464.74 3124.03H1497.77C1532.03 3124.03 1539.22 3123.84 1554.63 3122.5C1562.77 3121.8 1572.03 3120.85 1572.3 3120.69C1572.4 3120.63 1574.27 3120.34 1576.47 3120.04C1585.81 3118.75 1595.84 3116.12 1600.74 3113.66C1602.76 3112.65 1603.97 3112.27 1603.97 3112.66C1603.97 3112.73 1604.33 3114.19 1604.78 3115.91C1605.22 3117.62 1606.89 3124.66 1608.48 3131.53C1610.08 3138.41 1611.52 3144.3 1611.69 3144.62C1611.98 3145.17 1614.28 3145.21 1652.79 3145.21H1693.59L1693.82 3143.79C1693.95 3143.01 1694.4 3140.95 1694.82 3139.2C1695.24 3137.46 1696.06 3133.93 1696.65 3131.37C1697.24 3128.8 1698.22 3124.52 1698.83 3121.86C1699.45 3119.2 1700.42 3115 1700.99 3112.53C1701.56 3110.05 1702.38 3106.52 1702.8 3104.69C1703.23 3102.86 1704.06 3099.25 1704.65 3096.69C1705.24 3094.12 1706.14 3090.22 1706.67 3088.02C1707.19 3085.81 1707.72 3083.38 1707.84 3082.6C1707.97 3081.83 1708.25 3081.04 1708.47 3080.86C1709.11 3080.33 1713.53 3079.09 1726.97 3075.68C1733.84 3073.94 1739.57 3072.62 1739.7 3072.76C1740.15 3073.23 1743.36 3086.28 1746.32 3099.69C1747.25 3103.91 1748.37 3108.93 1748.82 3110.86C1749.26 3112.78 1749.95 3115.79 1750.35 3117.53C1754.94 3137.88 1758.81 3143.81 1768.66 3145.59C1771.72 3146.14 1787.56 3146.14 1798.5 3145.58C1802.53 3145.38 1812.6 3145.21 1820.88 3145.21C1832.51 3145.21 1836 3145.11 1836.25 3144.79C1836.44 3144.56 1836.75 3143.47 1836.95 3142.37C1837.15 3141.27 1837.99 3137.07 1838.81 3133.03C1839.64 3129 1841.3 3120.9 1842.51 3115.03C1843.71 3109.16 1844.99 3102.78 1845.34 3100.85C1845.7 3098.93 1846.22 3096.38 1846.49 3095.19C1846.76 3093.99 1847.68 3089.42 1848.52 3085.01C1851.64 3068.73 1852.94 3062.18 1853.35 3060.67C1853.5 3060.12 1853.8 3056.29 1854.02 3052.17C1854.24 3048.04 1854.54 3044.43 1854.69 3044.14C1854.86 3043.82 1856.14 3043.33 1857.9 3042.91C1867.69 3040.55 1870.82 3039.8 1873.51 3039.17C1875.16 3038.78 1878.91 3037.88 1881.84 3037.16C1884.78 3036.45 1889.13 3035.4 1891.51 3034.83C1893.89 3034.26 1897.64 3033.36 1899.84 3032.83C1902.04 3032.3 1906.02 3031.34 1908.68 3030.69C1911.34 3030.05 1915.46 3029.06 1917.85 3028.5C1920.23 3027.93 1923.68 3027.1 1925.51 3026.66C1927.35 3026.21 1931.4 3025.23 1934.51 3024.48C1937.63 3023.73 1942.06 3022.66 1944.35 3022.11C1946.64 3021.56 1950.02 3020.75 1951.85 3020.31C1953.68 3019.88 1957.13 3019.06 1959.52 3018.49C1965.63 3017.02 1968.29 3016.4 1975.69 3014.67C1979.26 3013.84 1983.01 3012.93 1984.02 3012.65C1985.03 3012.37 1988.48 3011.54 1991.69 3010.8C1994.9 3010.06 1999.02 3009.09 2000.86 3008.65C2002.69 3008.22 2006.52 3007.32 2009.36 3006.66C2012.2 3006 2016.4 3005.02 2018.69 3004.47C2020.98 3003.92 2026.46 3002.65 2030.86 3001.64C2035.26 3000.63 2040.44 2999.43 2042.36 2998.98C2044.29 2998.52 2047.51 2997.79 2049.53 2997.34C2051.55 2996.89 2056.95 2995.68 2061.53 2994.64C2069.39 2992.87 2074.19 2991.81 2085.2 2989.43C2087.77 2988.88 2091.59 2988.05 2093.7 2987.6C2101.73 2985.86 2108.93 2984.37 2120.21 2982.11C2126.62 2980.82 2132.52 2979.53 2133.32 2979.23C2135.37 2978.47 2137.84 2976.11 2138.94 2973.87L2139.88 2971.97L2139.97 2946.65C2140.02 2932.73 2139.95 2921.22 2139.8 2921.08C2139.66 2920.93 2135.94 2921.79 2131.54 2922.98C2127.14 2924.17 2122.19 2925.5 2120.54 2925.94C2115.92 2927.16 2102.23 2930.89 2095.37 2932.79C2091.98 2933.73 2088.45 2934.7 2087.53 2934.95C2085.2 2935.57 2079.59 2937.13 2072.37 2939.15C2068.97 2940.1 2064.7 2941.28 2062.87 2941.78C2061.03 2942.28 2057.36 2943.3 2054.7 2944.06C2052.04 2944.81 2044.76 2946.87 2038.53 2948.63C2026.88 2951.92 2025.36 2952.36 2002.36 2958.98C1988.57 2962.95 1981.34 2965.05 1973.35 2967.4C1970.88 2968.13 1965.4 2969.73 1961.19 2970.95C1956.97 2972.18 1951.64 2973.75 1949.35 2974.45C1947.06 2975.16 1943.38 2976.27 1941.18 2976.92C1938.98 2977.58 1933.13 2979.33 1928.18 2980.83C1923.23 2982.32 1917.9 2983.9 1916.35 2984.35C1914.79 2984.8 1911.34 2985.85 1908.68 2986.68C1906.02 2987.51 1903.39 2988.32 1902.84 2988.47C1902.29 2988.63 1899.44 2989.5 1896.51 2990.41C1893.58 2991.31 1887.88 2993.07 1883.84 2994.31C1879.81 2995.55 1873.96 2997.36 1870.84 2998.33C1867.72 2999.3 1862.17 3001.02 1858.51 3002.15C1854.84 3003.29 1851.27 3004.43 1850.58 3004.68C1849.22 3005.19 1847.67 3005.3 1847.67 3004.9C1847.67 3004.76 1847.14 3002.12 1846.5 2999.02C1845.86 2995.92 1845.34 2993.13 1845.34 2992.81C1845.34 2992.4 1845.76 2992.11 1846.75 2991.86C1847.53 2991.67 1855 2989.27 1863.34 2986.53C1871.68 2983.79 1883.91 2979.8 1890.51 2977.65C1897.11 2975.51 1906.56 2972.43 1911.51 2970.82C1916.46 2969.2 1924.56 2966.57 1929.51 2964.97C1934.46 2963.37 1943.02 2960.6 1948.52 2958.8C1954.02 2957.01 1961.67 2954.53 1965.52 2953.3C1969.37 2952.07 1973.35 2950.79 1974.35 2950.45C1977.12 2949.52 1988.63 2945.8 1996.52 2943.29C2000.37 2942.06 2007.12 2939.89 2011.53 2938.47C2015.93 2937.04 2025.53 2933.97 2032.86 2931.63C2040.2 2929.3 2047.25 2927.04 2048.53 2926.61C2050.94 2925.8 2062.4 2922.16 2072.03 2919.13C2075.06 2918.18 2080.01 2916.6 2083.03 2915.63C2086.06 2914.66 2090.11 2913.38 2092.04 2912.79C2093.96 2912.2 2098.01 2910.93 2101.04 2909.96C2104.06 2909 2108.34 2907.65 2110.54 2906.97C2114.88 2905.61 2120.42 2903.87 2124.37 2902.61C2125.75 2902.17 2128 2901.49 2129.37 2901.09C2134.06 2899.73 2136.19 2898.47 2137.78 2896.11C2140.04 2892.76 2139.86 2897.49 2139.98 2838.58C2140.03 2809.24 2139.99 2784.46 2139.87 2783.51C2139.64 2781.53 2138.4 2779.41 2136.99 2778.58C2136.45 2778.26 2135.22 2777.92 2134.24 2777.82C2132.58 2777.65 2132.13 2777.79 2127.5 2779.88C2124.77 2781.1 2120.59 2782.98 2118.21 2784.05C2115.82 2785.12 2111.55 2787.04 2108.7 2788.33C2105.86 2789.61 2101.29 2791.67 2098.54 2792.91C2092.09 2795.8 2083.28 2799.81 2076.53 2802.91C2073.6 2804.25 2068.5 2806.58 2065.2 2808.08C2061.9 2809.57 2056.8 2811.9 2053.86 2813.24C2050.93 2814.59 2045.83 2816.92 2042.53 2818.42C2039.23 2819.93 2033.98 2822.32 2030.86 2823.75C2016.99 2830.09 2012.97 2831.91 1999.02 2838.18C1996.36 2839.38 1991.53 2841.57 1988.27 2843.05C1985.02 2844.54 1982.28 2845.75 1982.19 2845.75C1982.1 2845.75 1980.86 2846.29 1979.44 2846.96C1976.86 2848.16 1970.76 2850.87 1966.02 2852.91C1960.6 2855.24 1958.37 2856.23 1954.85 2857.84C1952.83 2858.76 1950.59 2859.72 1949.86 2859.98C1949.12 2860.24 1947.71 2860.84 1946.71 2861.31C1943.48 2862.84 1940.2 2864.09 1939.43 2864.09C1938.82 2864.09 1936.05 2862.38 1934.18 2860.84C1934 2860.69 1933.1 2860.02 1932.18 2859.34C1931.26 2858.66 1930.29 2857.9 1930.01 2857.66C1929.74 2857.41 1928.77 2856.69 1927.86 2856.07C1926.95 2855.44 1925.98 2854.74 1925.7 2854.52C1925.41 2854.3 1924.58 2853.66 1923.85 2853.11C1923.11 2852.56 1922.29 2851.9 1922.01 2851.65C1921.74 2851.4 1920.77 2850.7 1919.87 2850.08C1918.96 2849.47 1916.86 2847.95 1915.2 2846.71C1908.94 2842.04 1908.28 2841.55 1906.36 2840.08C1905.28 2839.26 1903.46 2837.91 1902.31 2837.08C1900.24 2835.6 1887.82 2826.36 1887.18 2825.83C1886.99 2825.68 1885.27 2824.39 1883.34 2822.96C1881.42 2821.53 1879.47 2820.08 1879.01 2819.74C1878.55 2819.39 1877.1 2818.31 1875.79 2817.34C1874.48 2816.37 1870 2813.02 1865.84 2809.9C1861.68 2806.79 1857.96 2804.02 1857.56 2803.75C1857.16 2803.48 1855.64 2802.35 1854.17 2801.24C1852.7 2800.12 1850.75 2798.7 1849.84 2798.07C1848.92 2797.45 1847.35 2796.29 1846.34 2795.5C1844.3 2793.9 1844.45 2794.01 1842.24 2792.4C1841.36 2791.75 1839.76 2790.55 1838.69 2789.73C1837.62 2788.9 1836.39 2787.97 1835.95 2787.66C1832.49 2785.17 1828.17 2781.97 1824.35 2779.06C1823.27 2778.23 1821.32 2776.81 1820.01 2775.89C1818.7 2774.97 1817.45 2774.07 1817.23 2773.88C1816.46 2773.22 1808.95 2767.55 1807.98 2766.89C1806.91 2766.16 1806.56 2765.22 1806.01 2761.55C1805.82 2760.27 1805.22 2756.67 1804.67 2753.55C1803.73 2748.13 1802.13 2738.37 1801.33 2733.04C1801.12 2731.66 1800.74 2729.34 1800.48 2727.87C1800.06 2725.52 1799.28 2720.7 1797.47 2709.2C1797.13 2707.01 1796.76 2705.72 1796.41 2705.44C1796.1 2705.21 1794.91 2705.03 1793.61 2705.03C1791.69 2705.03 1791.3 2705.13 1790.99 2705.7C1790.61 2706.42 1790.77 2739.74 1791.16 2740.38C1791.28 2740.56 1791.87 2740.71 1792.49 2740.71C1793.45 2740.71 1793.64 2740.84 1793.79 2741.63C1794.06 2742.97 1794.88 2748.33 1795.49 2752.71C1795.78 2754.82 1796.24 2757.91 1796.51 2759.57C1797.03 2762.77 1797.14 2765.05 1796.78 2765.05C1796.59 2765.05 1793.76 2762.87 1793.33 2762.39C1793.24 2762.29 1792.27 2761.46 1791.17 2760.54C1790.07 2759.63 1788.65 2758.41 1788 2757.83C1787.36 2757.25 1786.46 2756.48 1786 2756.12L1785.18 2755.45L1785.77 2748.89C1786.1 2745.28 1786.48 2742.03 1786.61 2741.67C1786.75 2741.3 1787.21 2740.83 1787.65 2740.61C1788.4 2740.23 1788.43 2740.06 1788.35 2737.37C1788.31 2735.82 1788.16 2728.09 1788.04 2720.2C1787.91 2712.31 1787.69 2705.67 1787.55 2705.44C1787.15 2704.81 1781.21 2704.87 1780.67 2705.52C1780.44 2705.8 1780.12 2707.26 1779.95 2708.77C1779.78 2710.29 1779.34 2713.56 1778.98 2716.03C1778.61 2718.51 1778.16 2721.81 1777.98 2723.37C1777.59 2726.78 1777.17 2730.02 1776.49 2734.71C1776.21 2736.63 1775.53 2741.66 1774.98 2745.88C1773.64 2756.1 1772.09 2767.75 1771.5 2772.06C1771.12 2774.82 1770.66 2776.43 1769.29 2779.72C1766.68 2786.04 1765.87 2787.94 1764.34 2791.4C1762.53 2795.48 1762.36 2795.86 1760.49 2800.23C1759.62 2802.25 1758.78 2804.04 1758.62 2804.22C1758.46 2804.39 1758.33 2804.72 1758.33 2804.95C1758.33 2805.18 1757.89 2806.32 1757.35 2807.47C1756.81 2808.63 1755.3 2812.05 1753.99 2815.07C1752.67 2818.1 1751.46 2820.72 1751.3 2820.89C1751.13 2821.07 1750.99 2821.44 1750.99 2821.73C1750.98 2822.01 1750.85 2822.45 1750.7 2822.69C1750.33 2823.27 1749.37 2822.8 1747.47 2821.11C1746.73 2820.45 1744.87 2818.86 1743.33 2817.57C1741.8 2816.29 1739.84 2814.64 1738.99 2813.91C1738.14 2813.17 1736.81 2812.05 1736.03 2811.4C1735.25 2810.76 1734.05 2809.71 1733.36 2809.07C1732.67 2808.43 1731.09 2807.08 1729.85 2806.07C1728.6 2805.06 1727.23 2803.91 1726.8 2803.51C1726.36 2803.11 1724.69 2801.68 1723.09 2800.34C1721.48 2799 1719.86 2797.59 1719.49 2797.21C1719.12 2796.83 1718.5 2796.31 1718.12 2796.04C1717.73 2795.78 1716.6 2794.87 1715.62 2794.02C1713.66 2792.34 1707 2786.62 1705.65 2785.47C1705.19 2785.08 1704.07 2784.13 1703.15 2783.37C1701.32 2781.84 1698.72 2779.63 1696.33 2777.56C1692.61 2774.35 1687.15 2769.72 1682.49 2765.83C1681.21 2764.76 1679.86 2763.58 1679.49 2763.21C1679.12 2762.84 1678.25 2762.12 1677.56 2761.61C1676.87 2761.09 1675.94 2760.35 1675.49 2759.94C1675.04 2759.54 1673.77 2758.4 1672.67 2757.41C1671.56 2756.41 1670.51 2755.14 1670.33 2754.57C1670.15 2754.01 1669.71 2751.67 1669.35 2749.38C1668.99 2747.09 1668.46 2743.79 1668.18 2742.04C1667.61 2738.46 1666.52 2731 1665.79 2725.54C1665.52 2723.52 1665.01 2720.14 1664.67 2718.03C1664.32 2715.92 1663.94 2713.3 1663.82 2712.2C1663.7 2711.1 1663.25 2707.95 1662.82 2705.19C1662.38 2702.44 1661.85 2698.92 1661.64 2697.36C1661.43 2695.8 1661.08 2694.42 1660.87 2694.28C1660.22 2693.87 1655.48 2693.98 1655.05 2694.42C1654.48 2694.99 1654.47 2729.89 1655.03 2730.23C1655.24 2730.36 1655.84 2730.46 1656.36 2730.44C1657.49 2730.41 1657.48 2730.38 1657.97 2735.71C1658.17 2737.82 1658.55 2741.49 1658.82 2743.88C1659.08 2746.26 1659.53 2750.39 1659.8 2753.05C1660.08 2755.71 1660.45 2759.16 1660.62 2760.72C1660.8 2762.28 1661.19 2765.73 1661.47 2768.39C1661.76 2771.05 1662.15 2774.27 1662.32 2775.56C1662.5 2776.84 1662.79 2779.32 1662.97 2781.06C1663.56 2786.72 1664.32 2792.88 1664.51 2793.48C1664.61 2793.8 1664.53 2794.06 1664.34 2794.06C1664.14 2794.06 1663.98 2793.84 1663.98 2793.56C1663.98 2793.29 1663.83 2793.06 1663.65 2793.06C1663.46 2793.06 1663.31 2792.9 1663.31 2792.7C1663.31 2792.51 1662.81 2791.57 1662.2 2790.62C1661.25 2789.16 1653.17 2775.73 1651.64 2773.08C1651.37 2772.6 1650.46 2771.09 1649.62 2769.72C1645.08 2762.25 1645.47 2763.15 1645.57 2760.38C1645.61 2759.01 1645.95 2755.93 1646.32 2753.55C1646.68 2751.16 1647.13 2748.16 1647.31 2746.88C1648.5 2738.54 1648.98 2734.88 1648.98 2734.1C1648.98 2732.23 1649.6 2730.87 1650.61 2730.49C1651.51 2730.15 1651.6 2729.95 1651.81 2727.99C1651.94 2726.83 1651.99 2718.92 1651.92 2710.42C1651.82 2695.58 1651.79 2694.95 1651.16 2694.5C1650.47 2693.99 1644.16 2693.8 1643.86 2694.27ZM1673.49 2759.59C1676.65 2762.21 1678.47 2763.76 1684.82 2769.22C1685.73 2770.01 1687.17 2771.23 1688.01 2771.94C1690.85 2774.33 1693.08 2776.22 1693.45 2776.56C1694.13 2777.16 1696.49 2779.2 1698.17 2780.62C1705.67 2786.97 1716.71 2796.34 1717.7 2797.19C1719.86 2799.06 1726.38 2804.61 1731.66 2809.08C1734.5 2811.49 1737.44 2814.01 1738.19 2814.68C1738.94 2815.36 1739.84 2816.13 1740.19 2816.41C1741.46 2817.4 1744.81 2820.27 1746.14 2821.49C1746.88 2822.18 1747.98 2823.08 1748.57 2823.5C1749.17 2823.91 1749.65 2824.43 1749.66 2824.65C1749.66 2825.06 1748.62 2827.52 1747.15 2830.58C1746.72 2831.5 1746.26 2832.66 1746.14 2833.16C1746.02 2833.67 1745.75 2834.08 1745.54 2834.08C1745.33 2834.08 1744.18 2833.15 1742.99 2832.02C1738.22 2827.48 1736.82 2826.21 1728.69 2818.94C1727.48 2817.86 1725.59 2816.13 1724.5 2815.1C1723.41 2814.08 1721.99 2812.82 1721.36 2812.31C1720.72 2811.8 1717.93 2809.25 1715.16 2806.64C1712.38 2804.03 1709.37 2801.23 1708.47 2800.42C1704.5 2796.86 1690.89 2783.87 1685.52 2778.53C1679.83 2772.86 1675.35 2767.69 1672.56 2763.57C1670.96 2761.2 1670.5 2760.24 1670.38 2758.98C1670.3 2758.1 1670.37 2757.38 1670.53 2757.38C1670.7 2757.38 1672.03 2758.38 1673.49 2759.59ZM1786.88 2758.3C1787.45 2758.8 1789.02 2760.14 1790.37 2761.26C1791.72 2762.39 1793.2 2763.67 1793.66 2764.11C1794.12 2764.55 1795.13 2765.41 1795.91 2766.01C1796.85 2766.73 1797.43 2767.51 1797.66 2768.33C1797.95 2769.37 1800.25 2784.92 1801.84 2796.57C1802.09 2798.4 1802.4 2800.39 1802.52 2800.98C1802.67 2801.7 1802.62 2802.07 1802.37 2802.07C1802.17 2802.07 1802 2801.95 1802 2801.81C1802 2801.67 1801.66 2801.19 1801.25 2800.73C1800.83 2800.27 1799.6 2798.85 1798.5 2797.58C1797.4 2796.3 1794.2 2792.92 1791.4 2790.07C1785.56 2784.13 1783.88 2781.8 1783.35 2778.91C1782.67 2775.12 1783.1 2767.58 1784.52 2758.8C1784.79 2757.1 1785.38 2756.97 1786.88 2758.3ZM1645.79 2765.5C1646.26 2766.11 1646.64 2766.72 1646.64 2766.86C1646.64 2766.99 1647.07 2767.73 1647.6 2768.49C1648.8 2770.24 1653.31 2777.59 1656.55 2783.06C1663.09 2794.13 1666.34 2803.53 1668 2816.24C1668.46 2819.78 1669.29 2827.71 1669.3 2828.7C1669.32 2829.82 1668.59 2829.15 1668.02 2827.52C1667.47 2825.97 1666.17 2822.9 1663.22 2816.24C1657.72 2803.82 1651.09 2787.95 1648.13 2780.09C1645.3 2772.59 1643.47 2764.39 1644.63 2764.39C1644.8 2764.39 1645.33 2764.89 1645.79 2765.5ZM1808.61 2768.75C1809.1 2769.13 1811.3 2770.77 1813.5 2772.4C1815.7 2774.03 1818.54 2776.16 1819.82 2777.13C1821.1 2778.1 1823.21 2779.64 1824.51 2780.56C1825.81 2781.48 1827.91 2783.03 1829.19 2784C1833.94 2787.66 1855.23 2803.53 1856.84 2804.62C1858.37 2805.66 1860.8 2807.48 1862 2808.49C1862.27 2808.72 1863.99 2810 1865.83 2811.33C1867.67 2812.67 1869.55 2814.05 1870.01 2814.41C1870.46 2814.77 1872.43 2816.23 1874.36 2817.66C1876.3 2819.1 1878.1 2820.45 1878.36 2820.67C1879.01 2821.21 1899.87 2836.71 1901.34 2837.75C1902.69 2838.69 1902.51 2838.56 1905.34 2840.73C1906.54 2841.65 1908.71 2843.25 1910.18 2844.3C1912.8 2846.17 1915.42 2848.18 1916.29 2849.01C1916.53 2849.24 1917.05 2849.6 1917.45 2849.81C1917.84 2850.02 1920.79 2852.16 1924 2854.58C1927.22 2856.99 1931.54 2860.22 1933.61 2861.75C1935.92 2863.45 1937.34 2864.73 1937.28 2865.03C1937.23 2865.3 1936.21 2865.93 1935.02 2866.43C1933.82 2866.93 1930.72 2868.25 1928.11 2869.37C1925.18 2870.64 1923.14 2871.34 1922.78 2871.2C1922.45 2871.09 1920.89 2869.89 1919.3 2868.55C1917.72 2867.21 1916.07 2865.81 1915.64 2865.44C1915.2 2865.08 1912.79 2863.06 1910.27 2860.96C1907.75 2858.86 1905.47 2856.95 1905.21 2856.7C1904.95 2856.46 1904.16 2855.78 1903.45 2855.19C1902.75 2854.61 1901.35 2853.44 1900.34 2852.59C1899.34 2851.74 1897.94 2850.56 1897.23 2849.98C1896.53 2849.4 1895.78 2848.77 1895.57 2848.58C1895.35 2848.4 1894.28 2847.5 1893.18 2846.58C1892.08 2845.67 1891.1 2844.82 1891.01 2844.71C1890.92 2844.59 1889.79 2843.64 1888.51 2842.6C1885.98 2840.54 1883.77 2838.68 1881.35 2836.58C1880.5 2835.85 1879.14 2834.69 1878.32 2834.01C1871.54 2828.36 1867.47 2824.92 1865.67 2823.3C1865.21 2822.89 1863.56 2821.51 1862.01 2820.23C1860.45 2818.96 1859.1 2817.82 1859.01 2817.71C1858.91 2817.59 1856.88 2815.86 1854.48 2813.87C1844.96 2805.93 1840.14 2801.87 1839.51 2801.23C1839.14 2800.86 1838.01 2799.93 1837 2799.17C1835.99 2798.4 1834.87 2797.5 1834.5 2797.16C1834.14 2796.82 1832.64 2795.52 1831.17 2794.26C1829.7 2793 1828.05 2791.58 1827.5 2791.1C1826.6 2790.32 1824.74 2788.76 1820.35 2785.12C1818.75 2783.79 1816.09 2781.51 1814.5 2780.1C1813.95 2779.62 1812.41 2778.34 1811.07 2777.26C1809.74 2776.18 1808.57 2775.18 1808.48 2775.02C1808.27 2774.68 1807.33 2769.46 1807.33 2768.64C1807.33 2767.88 1807.53 2767.9 1808.61 2768.75ZM1674.52 2769.79C1676.48 2771.47 1679.78 2774.54 1685.16 2779.71C1687.37 2781.83 1690.89 2785.14 1692.99 2787.06C1695.09 2788.99 1698.62 2792.29 1700.82 2794.4C1703.03 2796.51 1706.56 2799.81 1708.66 2801.73C1710.76 2803.66 1714.36 2807.04 1716.66 2809.24C1718.95 2811.44 1721.35 2813.67 1721.99 2814.21C1723.2 2815.22 1726.38 2818.18 1731.49 2823.06C1733.14 2824.64 1735.39 2826.74 1736.49 2827.73C1740.36 2831.2 1744.66 2835.53 1744.66 2835.95C1744.66 2836.33 1743.6 2838.9 1741.61 2843.33C1741.26 2844.11 1740.83 2845.12 1740.66 2845.58C1740.48 2846.04 1740.18 2846.42 1739.98 2846.42C1739.52 2846.42 1704.75 2811.25 1699.27 2805.25C1698.1 2803.97 1695.86 2801.57 1694.29 2799.91C1691.53 2797 1688.86 2794.09 1685.58 2790.43C1684.71 2789.47 1683.44 2787.9 1682.76 2786.95C1682.07 2786 1680.8 2784.4 1679.95 2783.39C1677.98 2781.09 1674.36 2775.48 1673.24 2773.01C1672.77 2771.98 1672.28 2770.51 1672.15 2769.76C1671.85 2767.95 1672.38 2767.95 1674.52 2769.79ZM1644.51 2774.64C1644.79 2775.33 1645.21 2776.34 1645.46 2776.89C1647.55 2781.52 1648.31 2783.3 1648.31 2783.53C1648.31 2783.69 1648.68 2784.65 1649.13 2785.69C1650.32 2788.41 1657.27 2804.92 1658.13 2807.07C1659.07 2809.39 1660.88 2813.6 1661.5 2814.91C1662 2815.94 1664.95 2823.12 1665.97 2825.74C1666.29 2826.57 1667.33 2829.1 1668.28 2831.37C1670.21 2835.95 1670.34 2836.52 1671.31 2844.58C1671.68 2847.7 1672.28 2852.43 1672.64 2855.09C1673.01 2857.75 1673.61 2862.32 1673.98 2865.26C1674.35 2868.19 1674.87 2872.17 1675.13 2874.1C1675.4 2876.02 1675.77 2878.72 1675.96 2880.1C1676.29 2882.44 1677 2886.55 1677.51 2889.02C1677.64 2889.66 1677.6 2890.1 1677.4 2890.1C1677.22 2890.1 1676.66 2888.64 1676.16 2886.85C1675.66 2885.06 1674.72 2882.02 1674.06 2880.1C1673.4 2878.17 1671.38 2872.25 1669.56 2866.93C1667.74 2861.61 1665.9 2856.13 1665.46 2854.76C1663.76 2849.39 1662.92 2846.87 1662.45 2845.75C1662.19 2845.11 1661.68 2843.61 1661.33 2842.42C1660.97 2841.22 1660.45 2839.57 1660.16 2838.75C1659.87 2837.92 1658.57 2833.87 1657.28 2829.75C1653.03 2816.21 1650.95 2809.47 1649.45 2804.4C1648.28 2800.41 1647.92 2799.08 1645.65 2790.4C1644.32 2785.34 1642.98 2777.72 1642.98 2775.31C1642.98 2772.99 1643.72 2772.66 1644.51 2774.64ZM1810 2777.64C1810 2777.78 1810.94 2778.64 1812.08 2779.56C1813.22 2780.48 1815.36 2782.28 1816.83 2783.56C1818.3 2784.85 1820.7 2786.87 1822.17 2788.05C1823.63 2789.24 1824.91 2790.3 1825 2790.41C1825.09 2790.53 1826.59 2791.82 1828.33 2793.29C1830.08 2794.76 1831.88 2796.28 1832.34 2796.67C1832.79 2797.06 1834.74 2798.69 1836.67 2800.28C1838.59 2801.88 1841.29 2804.18 1842.67 2805.4C1844.04 2806.62 1846.45 2808.65 1848 2809.91C1849.56 2811.18 1851.01 2812.37 1851.21 2812.56C1851.42 2812.75 1853.81 2814.78 1856.53 2817.07C1859.24 2819.37 1863.5 2822.97 1865.99 2825.08C1868.48 2827.19 1871.64 2829.83 1873.01 2830.95C1875.62 2833.08 1876.42 2833.76 1880.82 2837.58C1883.77 2840.14 1886.11 2842.09 1887.93 2843.5C1888.58 2844 1889.73 2844.97 1890.48 2845.66C1891.23 2846.35 1894.09 2848.79 1896.84 2851.09C1899.58 2853.38 1902.07 2855.48 1902.36 2855.76C1902.66 2856.03 1903.92 2857.08 1905.17 2858.09C1906.42 2859.1 1907.76 2860.25 1908.14 2860.65C1908.53 2861.05 1909.82 2862.15 1911.01 2863.09C1915.99 2867.02 1921.35 2871.71 1921.35 2872.13C1921.35 2872.31 1920.93 2872.6 1920.43 2872.78C1919.93 2872.96 1919.21 2873.25 1918.85 2873.42C1918.48 2873.6 1916.6 2874.43 1914.68 2875.28C1912.75 2876.13 1910.26 2877.26 1909.13 2877.79C1908 2878.33 1906.78 2878.76 1906.41 2878.76C1905.8 2878.76 1897.12 2870.46 1880.98 2854.42C1875.55 2849.02 1847.19 2821.1 1832.38 2806.57C1816.61 2791.09 1810 2784.51 1810 2784.3C1810 2784.2 1809.77 2782.94 1809.5 2781.51C1808.87 2778.19 1808.87 2777.39 1809.5 2777.39C1809.77 2777.39 1810 2777.5 1810 2777.64ZM1677.94 2784.14C1679.15 2785.47 1682.69 2789.14 1685.79 2792.3C1688.89 2795.46 1691.52 2798.18 1691.62 2798.35C1691.87 2798.75 1702.2 2809.57 1709.48 2817.08C1712.6 2820.3 1716.88 2824.72 1718.99 2826.92C1721.1 2829.12 1726.25 2834.48 1730.45 2838.83C1734.64 2843.18 1738.28 2847.01 1738.52 2847.33C1739.03 2848 1739.13 2849.46 1738.7 2849.94C1738.54 2850.11 1738.24 2850.78 1738.03 2851.42C1737.81 2852.06 1736.93 2854.2 1736.06 2856.17C1734.93 2858.76 1734.33 2859.75 1733.91 2859.76C1733.58 2859.76 1733.32 2859.64 1733.32 2859.51C1733.31 2859.37 1732.4 2858.28 1731.29 2857.09C1730.18 2855.9 1727.97 2853.42 1726.38 2851.59C1724.79 2849.75 1723.11 2847.87 1722.65 2847.39C1722.2 2846.92 1721.07 2845.65 1720.15 2844.58C1718.16 2842.24 1716.08 2839.86 1714.71 2838.35C1714.16 2837.75 1712.98 2836.41 1712.1 2835.39C1711.21 2834.37 1709.9 2832.87 1709.18 2832.06C1708.46 2831.24 1706.25 2828.74 1704.27 2826.5C1702.29 2824.25 1700.18 2821.86 1699.58 2821.18C1697.75 2819.12 1695.27 2816.33 1692.95 2813.72C1691.73 2812.35 1689.79 2810.11 1688.63 2808.74C1687.46 2807.36 1686.43 2806.16 1686.33 2806.07C1686.23 2805.98 1685.29 2804.91 1684.23 2803.69C1680.81 2799.72 1680.17 2798.98 1678.76 2797.37C1678 2796.5 1677.29 2795.36 1677.18 2794.84C1676.95 2793.77 1674.98 2782.16 1674.98 2781.9C1674.98 2781.26 1676.03 2782.06 1677.94 2784.14ZM1770.21 2782.64C1770.1 2783.15 1769.85 2785.06 1769.65 2786.89C1769.46 2788.73 1769.06 2791.73 1768.79 2793.56C1768.51 2795.4 1768.14 2797.87 1767.97 2799.07C1767.61 2801.6 1766.21 2808.75 1765.33 2812.57C1763.71 2819.6 1762.63 2823.11 1760.71 2827.58C1759.17 2831.16 1759.06 2831.13 1752.24 2825.1C1751.07 2824.07 1750.88 2824.71 1755.43 2814.41C1756.44 2812.11 1758.72 2806.86 1760.49 2802.73C1763.25 2796.31 1765.13 2792.05 1768.37 2784.81C1768.72 2784.03 1769.15 2783.02 1769.33 2782.56C1769.77 2781.41 1770.46 2781.47 1770.21 2782.64ZM1783.19 2782.38C1783.36 2782.74 1785.9 2785.6 1788.83 2788.74C1791.76 2791.88 1794.89 2795.23 1795.77 2796.17C1798.34 2798.93 1800.77 2802.38 1801.91 2804.9C1803.75 2808.95 1805.29 2815.89 1805.83 2822.58C1805.95 2824.04 1806.12 2825.51 1806.21 2825.83C1806.52 2826.93 1805.68 2826.41 1804.32 2824.66C1803.57 2823.7 1802.78 2822.68 1802.56 2822.4C1802.34 2822.12 1801.04 2820.39 1799.67 2818.56C1798.29 2816.74 1796.03 2813.81 1794.65 2812.07C1793.26 2810.33 1791.47 2808.02 1790.68 2806.95C1789.89 2805.87 1789 2804.74 1788.71 2804.43C1788.41 2804.12 1787.26 2802.68 1786.16 2801.22C1785.06 2799.76 1783.98 2798.37 1783.75 2798.13C1783.52 2797.88 1783.33 2797.57 1783.33 2797.44C1783.33 2797.3 1783.06 2796.9 1782.73 2796.54C1781.26 2794.95 1781 2794.25 1781 2792.05C1781 2789.76 1781.84 2782.58 1782.18 2782.04C1782.48 2781.54 1782.87 2781.67 1783.19 2782.38ZM1642.98 2787.3C1642.98 2787.98 1643.19 2789.14 1643.45 2789.88C1643.71 2790.62 1644.4 2792.81 1644.97 2794.73C1645.55 2796.66 1646.17 2798.68 1646.35 2799.23C1646.67 2800.2 1648.09 2804.66 1649.85 2810.24C1650.31 2811.7 1650.81 2813.36 1650.97 2813.91C1651.12 2814.46 1652.1 2817.61 1653.14 2820.91C1656.26 2830.83 1657.88 2836.06 1658.97 2839.75C1659.54 2841.67 1660.16 2843.7 1660.35 2844.25C1660.54 2844.8 1660.9 2846.01 1661.15 2846.95C1661.4 2847.88 1661.9 2849.53 1662.26 2850.62C1663 2852.87 1663.86 2855.73 1667.94 2869.59C1669.02 2873.26 1669.97 2876.56 1670.07 2876.93C1670.16 2877.3 1671.08 2880.52 1672.11 2884.1C1675.27 2895.05 1675.9 2897.37 1677.66 2904.28C1679.73 2912.41 1680.54 2916.34 1680.97 2920.47C1681.61 2926.56 1683.54 2940 1684.83 2947.29C1685.12 2948.94 1685.59 2951.72 1685.86 2953.46C1686.14 2955.2 1686.59 2957.91 1686.85 2959.46C1687.11 2961.02 1687.42 2963.61 1687.54 2965.22C1687.71 2967.7 1687.67 2968.13 1687.23 2968.13C1686.91 2968.13 1686.64 2967.68 1686.49 2966.88C1686.36 2966.2 1685.68 2963.61 1684.97 2961.13C1684.26 2958.66 1683.54 2956.03 1683.36 2955.3C1682.99 2953.79 1681.35 2947.6 1679.48 2940.62C1678.79 2938.06 1677.88 2934.68 1677.46 2933.12C1677.04 2931.56 1676.32 2928.86 1675.85 2927.12C1675.38 2925.38 1674.55 2922.3 1674.01 2920.28C1673.47 2918.26 1672.78 2915.71 1672.49 2914.61C1672.19 2913.51 1671.66 2911.56 1671.32 2910.28C1670.98 2908.99 1670.15 2905.92 1669.48 2903.44C1668.81 2900.97 1667.99 2897.89 1667.65 2896.61C1667.32 2895.32 1666.34 2891.65 1665.47 2888.44C1664.61 2885.23 1663.57 2881.32 1663.15 2879.77C1662.74 2878.21 1661.84 2874.83 1661.15 2872.26C1660.46 2869.69 1659.64 2866.62 1659.32 2865.43C1658.49 2862.33 1656.37 2854.33 1655.65 2851.59C1655.32 2850.3 1654.67 2847.9 1654.21 2846.25C1653.74 2844.6 1652.45 2839.8 1651.34 2835.58C1650.22 2831.36 1649.09 2827.16 1648.82 2826.24C1648.56 2825.33 1647.89 2822.85 1647.34 2820.74C1646.8 2818.63 1645.97 2815.48 1645.5 2813.74C1640.66 2795.68 1640.85 2796.58 1641.08 2792.74C1641.27 2789.49 1642.08 2786.06 1642.66 2786.06C1642.83 2786.06 1642.98 2786.62 1642.98 2787.3ZM1811.28 2787.36C1811.53 2787.51 1816.55 2792.43 1822.45 2798.28C1828.34 2804.13 1841.49 2817.09 1851.67 2827.08C1861.85 2837.07 1875.65 2850.64 1882.34 2857.25C1889.03 2863.86 1896.8 2871.5 1899.59 2874.23C1902.39 2876.96 1904.68 2879.36 1904.68 2879.56C1904.68 2879.96 1903.46 2880.62 1897.21 2883.63L1893.24 2885.53L1891.21 2883.36C1882.95 2874.5 1879.63 2870.97 1870.01 2860.77C1862.8 2853.12 1859.51 2849.61 1857.04 2846.91C1855.86 2845.63 1853.76 2843.38 1852.37 2841.91C1850.98 2840.44 1848.56 2837.81 1847 2836.08C1845.45 2834.34 1843.19 2831.86 1841.99 2830.58C1840.79 2829.29 1838.7 2826.97 1837.34 2825.41C1835.98 2823.85 1834.71 2822.43 1834.52 2822.24C1833.75 2821.52 1826.45 2813.11 1824.53 2810.74C1823.86 2809.91 1823 2808.87 1822.63 2808.42C1822.25 2807.97 1821.54 2807.07 1821.05 2806.42C1820.57 2805.77 1820.09 2805.16 1819.99 2805.07C1819.89 2804.98 1819.22 2804.08 1818.5 2803.07C1817.78 2802.06 1817.09 2801.16 1816.98 2801.07C1816.45 2800.65 1811.98 2793.69 1811.08 2791.9C1809.25 2788.24 1809.34 2786.13 1811.28 2787.36ZM1788.5 2805.77C1799.23 2819.32 1801.36 2822.29 1803.64 2826.94C1807.36 2834.5 1808.9 2840.36 1810.46 2852.92C1811.36 2860.17 1811.45 2862.09 1810.89 2862.09C1810.62 2862.09 1810.24 2861.64 1810.05 2861.09C1809.86 2860.54 1809.54 2860.09 1809.35 2860.09C1809.16 2860.09 1809 2859.94 1809 2859.76C1809 2859.58 1807.37 2856.92 1805.38 2853.84C1803.38 2850.77 1801.23 2847.43 1800.58 2846.42C1798.5 2843.16 1794.3 2836.69 1791.36 2832.21C1787.07 2825.67 1783.17 2819.57 1781.62 2816.98C1781.09 2816.1 1780.39 2815.08 1780.05 2814.72C1778.72 2813.29 1778.56 2811.88 1779.14 2806.88C1779.44 2804.33 1779.76 2801.33 1779.86 2800.23C1780.11 2797.28 1780.33 2796.06 1780.59 2796.08C1780.72 2796.09 1784.28 2800.45 1788.5 2805.77ZM1640.98 2800.1C1640.98 2800.73 1642.27 2806 1643.99 2812.4C1644.31 2813.6 1645.27 2817.2 1646.14 2820.41C1647 2823.62 1648.06 2827.59 1648.5 2829.24C1649.57 2833.26 1650.52 2836.79 1652.98 2845.92C1654.12 2850.14 1655.39 2854.86 1655.8 2856.42C1657.8 2863.92 1658.73 2867.41 1659.2 2869.09C1659.47 2870.1 1659.98 2871.98 1660.31 2873.26C1660.64 2874.55 1661.32 2877.1 1661.82 2878.93C1662.32 2880.77 1662.84 2882.72 1662.98 2883.27C1663.12 2883.82 1663.62 2885.69 1664.09 2887.44C1664.56 2889.18 1665.33 2892.03 1665.79 2893.77C1666.26 2895.51 1667.24 2899.19 1667.98 2901.94C1668.72 2904.69 1669.76 2908.59 1670.29 2910.61C1672.44 2918.75 1676.66 2934.47 1679.1 2943.46C1680.01 2946.8 1681.2 2951.32 1682.49 2956.3C1683.87 2961.61 1685.29 2966.92 1685.86 2968.86C1686.39 2970.68 1686.39 2970.8 1685.75 2972.03C1685.38 2972.73 1684.89 2973.9 1684.66 2974.64C1684.42 2975.37 1683.97 2976.57 1683.64 2977.3C1683.32 2978.04 1682.13 2980.89 1681 2983.64C1678.37 2990 1678 2990.88 1676.98 2992.95C1676.05 2994.83 1677.55 2993.93 1661.15 3002.45C1657.85 3004.17 1653.5 3006.43 1651.48 3007.49C1634.6 3016.31 1608.75 3029.05 1608.41 3028.71C1608.24 3028.54 1608.71 3024.43 1609.79 3016.65C1610.05 3014.82 1610.5 3011.59 1610.8 3009.48C1611.09 3007.38 1611.55 3004 1611.81 3001.98C1612.07 2999.96 1612.52 2996.74 1612.82 2994.81C1613.11 2992.89 1613.55 2989.73 1613.8 2987.81C1614.04 2985.88 1614.55 2982.13 1614.93 2979.47C1615.32 2976.81 1616.16 2970.74 1616.82 2965.97C1617.47 2961.2 1618.22 2955.87 1618.47 2954.13C1618.73 2952.39 1619.18 2949.16 1619.47 2946.96C1619.76 2944.76 1620.21 2941.53 1620.47 2939.79C1621.02 2936.19 1621.35 2933.8 1622.32 2926.45C1622.69 2923.61 1623.15 2920.38 1623.34 2919.28C1623.52 2918.18 1623.8 2916.16 1623.96 2914.78C1624.12 2913.4 1624.56 2910.18 1624.93 2907.61C1625.3 2905.04 1626.14 2899.04 1626.79 2894.27C1627.44 2889.5 1628.19 2884.1 1628.46 2882.27C1628.73 2880.43 1629.19 2877.13 1629.48 2874.93C1629.77 2872.73 1630.36 2868.45 1630.8 2865.43C1631.23 2862.4 1631.91 2857.52 1632.3 2854.59C1632.69 2851.65 1633.15 2848.28 1633.33 2847.09C1633.8 2844.01 1634.61 2838.32 1634.98 2835.58C1635.15 2834.3 1635.51 2831.67 1635.78 2829.75C1636.05 2827.82 1636.65 2823.39 1637.12 2819.91C1638.38 2810.56 1639.65 2802.07 1640.02 2800.65C1640.36 2799.3 1640.98 2798.95 1640.98 2800.1ZM1678.98 2800.48C1678.99 2800.83 1681.09 2804.24 1683.68 2808.11C1683.98 2808.54 1685.53 2811 1687.15 2813.57C1688.76 2816.14 1690.86 2819.44 1691.82 2820.91C1692.78 2822.38 1694.23 2824.63 1695.05 2825.91C1696.58 2828.34 1699.61 2833.1 1701.69 2836.36C1702.35 2837.4 1703.99 2839.97 1705.33 2842.08C1708.29 2846.73 1709.91 2849.28 1712.51 2853.36C1713.6 2855.06 1715.09 2857.41 1715.82 2858.57C1717.5 2861.22 1720.73 2866.28 1723.5 2870.59C1724.67 2872.43 1725.96 2874.56 1726.36 2875.33C1727.05 2876.66 1727.06 2876.77 1726.54 2877.88C1726.23 2878.51 1725.99 2879.16 1725.99 2879.31C1725.99 2879.46 1725.63 2880.34 1725.19 2881.26C1723.97 2883.8 1722.77 2886.46 1722.2 2887.85C1721.92 2888.54 1721.57 2889.1 1721.42 2889.1C1721.27 2889.1 1720.76 2888.39 1720.29 2887.52C1719.58 2886.21 1714.59 2877.87 1709.97 2870.26C1709.41 2869.34 1708.42 2867.69 1707.77 2866.59C1702.6 2857.89 1699.11 2852.07 1698.48 2851.09C1698.07 2850.45 1696.72 2848.19 1695.47 2846.09C1694.22 2843.98 1692.86 2841.72 1692.45 2841.08C1692.04 2840.44 1691.36 2839.31 1690.93 2838.56C1689.51 2836.09 1685.24 2828.96 1683.41 2826C1681.71 2823.28 1681.56 2822.85 1680.95 2819.17C1680.6 2817.01 1680.08 2813.44 1679.8 2811.24C1679.52 2809.04 1679.09 2806.19 1678.84 2804.9C1677.92 2800.21 1677.91 2800.07 1678.47 2800.07C1678.75 2800.07 1678.98 2800.25 1678.98 2800.48ZM1814.42 2801.65C1815 2802.34 1816.63 2804.1 1818.04 2805.57C1819.44 2807.04 1821.55 2809.29 1822.71 2810.58C1823.88 2811.88 1825.51 2813.68 1826.33 2814.6C1828.56 2817.07 1837.49 2826.84 1840.17 2829.75C1841.45 2831.14 1843.78 2833.69 1845.34 2835.43C1846.9 2837.16 1849.45 2839.93 1851 2841.59C1852.56 2843.24 1855.11 2846.02 1856.67 2847.75C1858.23 2849.49 1860.71 2852.2 1862.17 2853.77C1863.64 2855.34 1866.04 2857.95 1867.51 2859.57C1868.97 2861.19 1872.56 2865.08 1875.47 2868.22C1878.39 2871.36 1882.14 2875.42 1883.81 2877.25C1885.48 2879.07 1887.85 2881.63 1889.09 2882.94C1890.33 2884.25 1891.34 2885.57 1891.34 2885.88C1891.34 2886.53 1883.09 2890.78 1881.88 2890.76C1880.86 2890.74 1880.65 2890.54 1875.01 2884.13C1873.82 2882.77 1872.47 2881.26 1872.01 2880.78C1871.55 2880.29 1870.28 2878.85 1869.18 2877.58C1866.31 2874.25 1865.93 2873.81 1865.01 2872.79C1864.55 2872.29 1863.5 2871.14 1862.67 2870.23C1861.85 2869.33 1860.27 2867.55 1859.17 2866.29C1858.07 2865.02 1856.72 2863.52 1856.17 2862.96C1855.62 2862.39 1853.9 2860.42 1852.34 2858.59C1850.79 2856.76 1849.21 2854.96 1848.84 2854.59C1848.46 2854.22 1846.44 2851.97 1844.35 2849.59C1842.26 2847.2 1840.39 2845.09 1840.19 2844.88C1839.49 2844.15 1837.51 2841.93 1835.1 2839.16C1833.75 2837.61 1832.47 2836.16 1832.24 2835.93C1831.54 2835.2 1829.65 2833.08 1827.1 2830.16C1825.75 2828.61 1824.46 2827.16 1824.24 2826.93C1824.02 2826.7 1822.99 2825.55 1821.96 2824.38C1817.54 2819.32 1815.65 2816.96 1815.5 2816.29C1815.42 2815.9 1815.12 2814.3 1814.85 2812.74C1814.58 2811.18 1814.15 2808.7 1813.88 2807.24C1813.24 2803.64 1812.89 2800.4 1813.14 2800.4C1813.26 2800.4 1813.83 2800.96 1814.42 2801.65ZM1684.52 2805.65C1685.04 2806.34 1685.71 2807.13 1686 2807.4C1686.3 2807.68 1687.87 2809.48 1689.5 2811.4C1691.12 2813.33 1693.21 2815.74 1694.14 2816.75C1695.06 2817.76 1696.94 2819.86 1698.32 2821.41C1699.69 2822.95 1701.04 2824.45 1701.32 2824.74C1701.59 2825.03 1702.94 2826.61 1704.32 2828.25C1705.69 2829.9 1707.04 2831.47 1707.32 2831.76C1707.92 2832.37 1717.98 2843.69 1719.61 2845.58C1720.83 2847 1722.49 2848.88 1728.86 2856.03C1731.04 2858.47 1732.96 2860.76 1733.12 2861.11C1733.46 2861.83 1733.08 2862.97 1730.66 2868.59C1729.79 2870.61 1728.87 2872.75 1728.62 2873.35C1727.84 2875.19 1727.43 2874.86 1724.28 2869.85C1723.61 2868.79 1722.39 2866.88 1721.57 2865.59C1720.75 2864.31 1719.04 2861.6 1717.78 2859.57C1716.52 2857.54 1715.34 2855.65 1715.15 2855.37C1711.16 2849.3 1705.8 2840.93 1704.84 2839.27C1704.31 2838.36 1702.57 2835.65 1700.97 2833.25C1699.37 2830.84 1697.73 2828.28 1697.33 2827.56C1696.6 2826.22 1694.13 2822.33 1691.95 2819.05C1690.14 2816.32 1685.32 2808.71 1685.32 2808.58C1685.32 2808.52 1684.79 2807.69 1684.15 2806.74C1683.51 2805.78 1682.98 2804.87 1682.98 2804.7C1682.98 2804.07 1683.61 2804.45 1684.52 2805.65ZM1786.04 2826.01C1793.51 2837.29 1799.71 2846.79 1800.85 2848.66C1804.33 2854.44 1806.9 2858.77 1807.51 2859.9C1807.91 2860.65 1808.54 2861.79 1808.91 2862.44C1809.88 2864.15 1811.93 2868.89 1812.86 2871.57C1813.6 2873.7 1813.96 2877.1 1813.44 2877.1C1813.24 2877.1 1808.94 2873.64 1807.63 2872.43C1806.32 2871.21 1804.7 2869.81 1803.01 2868.42C1802 2867.6 1800.94 2866.7 1800.65 2866.43C1800.36 2866.15 1798.87 2864.88 1797.35 2863.59C1795.83 2862.31 1794.25 2860.96 1793.85 2860.59C1793.44 2860.22 1792.02 2859.02 1790.69 2857.92C1788.15 2855.81 1787.72 2855.12 1784.67 2848.09C1784.08 2846.71 1783.39 2845.13 1783.14 2844.58C1782.9 2844.03 1782.02 2842.05 1781.18 2840.16C1780.35 2838.28 1779.66 2836.67 1779.66 2836.58C1779.66 2836.49 1779.14 2835.3 1778.51 2833.93C1776.69 2829.99 1776.56 2829.3 1776.95 2825.91C1777.14 2824.26 1777.47 2821.33 1777.68 2819.41C1778.11 2815.48 1778.2 2815.07 1778.57 2815.09C1778.71 2815.1 1782.07 2820.01 1786.04 2826.01ZM1764.84 2821.83C1764.72 2822.79 1764.49 2824.33 1764.32 2825.24C1764.15 2826.16 1763.86 2828.4 1763.66 2830.23C1763.47 2832.05 1763.25 2833.6 1763.18 2833.67C1762.92 2833.93 1761.82 2833.39 1760.87 2832.55C1759.93 2831.72 1759.92 2831.68 1760.44 2830.64C1761.28 2828.96 1762.66 2825.47 1763.6 2822.66C1764.07 2821.24 1764.59 2820.07 1764.76 2820.07C1764.92 2820.07 1764.96 2820.85 1764.84 2821.83ZM1817.94 2821.47C1818.61 2822.24 1819.99 2823.79 1821 2824.91C1822.01 2826.03 1823.81 2828.06 1825 2829.42C1826.19 2830.78 1828.52 2833.41 1830.17 2835.26C1831.82 2837.11 1834.67 2840.33 1836.5 2842.4C1838.34 2844.48 1841.94 2848.52 1844.5 2851.39C1847.07 2854.26 1850.74 2858.4 1852.67 2860.6C1854.59 2862.79 1857.59 2866.17 1859.34 2868.1C1861.08 2870.03 1863.48 2872.73 1864.67 2874.09C1865.86 2875.46 1867.59 2877.42 1868.51 2878.44C1869.42 2879.47 1870.62 2880.83 1871.17 2881.47C1871.72 2882.11 1873.9 2884.55 1876.01 2886.89C1878.12 2889.23 1879.89 2891.28 1879.95 2891.44C1880.14 2891.97 1872.67 2895.51 1871.82 2895.3C1871.39 2895.19 1869.98 2894.32 1868.69 2893.35C1867.39 2892.39 1865.26 2890.85 1863.97 2889.94C1862.67 2889.02 1861.44 2888.12 1861.22 2887.93C1860.66 2887.43 1856.47 2884.4 1855.01 2883.43C1854.01 2882.77 1847.63 2878.02 1846.17 2876.84C1845.99 2876.7 1845 2875.99 1843.98 2875.28C1842.96 2874.57 1841.78 2873.45 1841.35 2872.79C1840.92 2872.13 1839.92 2870.77 1839.13 2869.76C1838.33 2868.75 1836.67 2866.64 1835.43 2865.06C1834.18 2863.49 1832.79 2861.69 1832.34 2861.08C1831.88 2860.46 1830.53 2858.72 1829.33 2857.2C1828.14 2855.68 1826.2 2853.12 1825.01 2851.51C1823.82 2849.9 1822.52 2848.24 1822.12 2847.82C1820.85 2846.48 1820.32 2844.87 1819.51 2839.83C1819.07 2837.13 1818.18 2831.84 1817.53 2828.08C1816.32 2821.08 1816.19 2820.07 1816.52 2820.07C1816.63 2820.07 1817.27 2820.7 1817.94 2821.47ZM1754.41 2828.34C1758.14 2831.47 1758.59 2832.23 1757.89 2834.19C1756.61 2837.77 1754.5 2842.42 1754.15 2842.42C1753.74 2842.42 1750.94 2839.99 1748.4 2837.43C1746.99 2836.01 1746.93 2835.86 1747.07 2834.36C1747.15 2833.5 1747.75 2831.69 1748.4 2830.35C1749.04 2829.01 1749.76 2827.42 1749.99 2826.83C1750.22 2826.23 1750.61 2825.74 1750.86 2825.74C1751.11 2825.74 1752.71 2826.91 1754.41 2828.34ZM1683.69 2828.66C1684.17 2829.53 1685.8 2832.27 1687.32 2834.75C1688.84 2837.22 1690.34 2839.7 1690.66 2840.25C1690.98 2840.8 1697.85 2852.27 1705.94 2865.74C1714.03 2879.2 1720.65 2890.43 1720.65 2890.69C1720.65 2891.17 1719.35 2894.67 1718.4 2896.77C1718.1 2897.41 1716.62 2900.72 1715.11 2904.11C1713.59 2907.5 1712.17 2910.28 1711.95 2910.28C1711.46 2910.28 1711.57 2910.49 1708.25 2903.11C1707.71 2901.92 1706.92 2900.19 1706.48 2899.27C1705.78 2897.81 1704.28 2894.54 1701.13 2887.6C1700.63 2886.5 1699.29 2883.58 1698.15 2881.1C1697.01 2878.62 1695.77 2875.92 1695.39 2875.1C1695.01 2874.27 1693.77 2871.57 1692.64 2869.09C1690.61 2864.68 1689.35 2861.92 1688.48 2859.92C1688.23 2859.37 1687.5 2857.74 1686.84 2856.29C1685.88 2854.18 1685.55 2852.87 1685.14 2849.62C1684.87 2847.4 1684.18 2842.13 1683.62 2837.92C1682.23 2827.48 1682.19 2827.08 1682.53 2827.08C1682.69 2827.08 1683.22 2827.79 1683.69 2828.66ZM1777.62 2834.67C1778.05 2835.72 1778.76 2837.37 1779.2 2838.33C1779.63 2839.3 1780.38 2841.02 1780.86 2842.17C1781.34 2843.31 1782.15 2845.15 1782.65 2846.25C1785.64 2852.76 1785.93 2853.82 1784.32 2852.4C1783.87 2852.01 1782.97 2851.28 1782.33 2850.8C1780.88 2849.71 1779.34 2848.38 1777.18 2846.36C1775.51 2844.81 1775.51 2844.81 1775.38 2842.25C1775.26 2839.95 1775.83 2833.62 1776.21 2833C1776.54 2832.46 1776.86 2832.83 1777.62 2834.67ZM1761.05 2834.13C1762.72 2835.45 1762.97 2836.13 1762.64 2838.42C1761.82 2844.1 1761.62 2845.18 1761.13 2846.64C1760.83 2847.53 1760.53 2848.31 1760.46 2848.39C1760.39 2848.46 1759.28 2847.49 1757.99 2846.23C1755.35 2843.63 1755.23 2843.19 1756.44 2840.58C1756.87 2839.66 1757.41 2838.31 1757.65 2837.58C1757.89 2836.85 1758.19 2836.1 1758.33 2835.91C1758.46 2835.73 1758.75 2835.02 1758.97 2834.33C1759.2 2833.64 1759.46 2833.08 1759.55 2833.08C1759.65 2833.08 1760.33 2833.55 1761.05 2834.13ZM1749.97 2840.38C1753.42 2843.67 1753.42 2843.67 1753.25 2845.13C1753.11 2846.36 1751.9 2849.54 1749.48 2855.01C1749.22 2855.6 1748.87 2856.09 1748.71 2856.09C1748.19 2856.09 1741.99 2849.47 1741.64 2848.54C1741.15 2847.25 1741.45 2846.13 1743.59 2841.33C1744.83 2838.57 1745.67 2837.08 1746 2837.08C1746.28 2837.08 1748.07 2838.56 1749.97 2840.38ZM1757.79 2847.72L1760.07 2850.02L1759 2853.64C1758.41 2855.63 1757.58 2858.23 1757.15 2859.42C1756.73 2860.62 1756.28 2861.93 1756.16 2862.34C1756.04 2862.75 1755.82 2863.09 1755.67 2863.09C1755.13 2863.09 1749.99 2857.65 1749.99 2857.09C1749.99 2856.78 1750.21 2856.09 1750.47 2855.56C1750.73 2855.02 1751.72 2852.64 1752.66 2850.26C1753.61 2847.87 1754.45 2845.81 1754.54 2845.67C1754.9 2845.08 1755.64 2845.54 1757.79 2847.72ZM1777.52 2848.17C1778.61 2849.14 1780.92 2851.12 1782.66 2852.59C1786.9 2856.17 1786.94 2856.22 1787.88 2858.37C1788.34 2859.41 1788.99 2860.86 1789.33 2861.59C1789.67 2862.32 1790.64 2864.5 1791.49 2866.43C1792.33 2868.35 1793.16 2870.23 1793.32 2870.59C1793.64 2871.32 1796.12 2876.98 1796.83 2878.6C1797.28 2879.62 1799.03 2883.4 1799.26 2883.85C1799.33 2883.99 1799.16 2884.1 1798.87 2884.1C1798.41 2884.1 1795.79 2881.8 1791.66 2877.76C1790.81 2876.94 1789.53 2875.75 1788.81 2875.13C1785.7 2872.45 1779.65 2866.42 1779.34 2865.71C1778.87 2864.62 1774.66 2847.83 1774.66 2847.05C1774.66 2846.01 1775.43 2846.32 1777.52 2848.17ZM1825.08 2853.34C1826.86 2855.68 1829.53 2859.17 1831.02 2861.09C1832.51 2863.02 1834.35 2865.42 1835.12 2866.44C1835.88 2867.45 1836.85 2868.64 1837.26 2869.09C1838.02 2869.91 1838.24 2870.76 1837.7 2870.76C1837.53 2870.76 1837.34 2870.63 1837.28 2870.48C1837.22 2870.32 1836.12 2869.48 1834.84 2868.6C1833.55 2867.73 1831.75 2866.41 1830.83 2865.68C1829.92 2864.95 1828.95 2864.27 1828.69 2864.16C1828.43 2864.06 1827.98 2863.77 1827.69 2863.51C1827.4 2863.26 1826.38 2862.45 1825.41 2861.7C1824.45 2860.96 1823.51 2860.08 1823.33 2859.75C1822.67 2858.51 1821.11 2849.09 1821.57 2849.09C1821.72 2849.09 1823.3 2851 1825.08 2853.34ZM1743.7 2852.67C1748.67 2857.74 1748.78 2858.14 1746.5 2862.95C1744.95 2866.23 1743.99 2868.78 1743.99 2869.61C1743.99 2870.7 1742.64 2870 1740.94 2868.04C1739.96 2866.91 1738.43 2865.22 1737.54 2864.29C1734.66 2861.26 1734.69 2861.84 1737.11 2856.39C1740.01 2849.82 1740.05 2849.75 1740.47 2849.75C1740.67 2849.75 1742.12 2851.07 1743.7 2852.67ZM1775.12 2853.34C1775.24 2854.21 1775.86 2857.01 1776.49 2859.57C1777.13 2862.13 1777.57 2864.29 1777.48 2864.38C1777.39 2864.47 1776.43 2863.65 1775.34 2862.57C1773.48 2860.72 1773.35 2860.49 1773.34 2859.03C1773.33 2857.39 1773.94 2852.45 1774.21 2852.01C1774.59 2851.39 1774.92 2851.87 1775.12 2853.34ZM1760.33 2856.16C1760.1 2857.31 1759.73 2859.88 1759.5 2861.86C1759.03 2865.92 1758.68 2866.6 1757.66 2865.5C1757.29 2865.11 1756.99 2864.59 1757 2864.36C1757 2863.82 1759.84 2854.6 1760.16 2854.09C1760.66 2853.28 1760.73 2854.16 1760.33 2856.16ZM1791.68 2860.17C1792.55 2860.95 1794.8 2862.87 1796.69 2864.43C1799.68 2866.89 1805.51 2871.91 1806 2872.43C1806.09 2872.53 1807.44 2873.64 1809 2874.91C1812.4 2877.67 1814 2879.25 1814.01 2879.83C1814.01 2880.07 1814.31 2882.22 1814.68 2884.6C1815.04 2886.98 1815.56 2890.59 1815.82 2892.61C1816.08 2894.64 1816.37 2896.51 1816.45 2896.78C1816.8 2897.87 1816.99 2901.11 1816.7 2901.11C1816.23 2901.11 1814.49 2899.58 1810.11 2895.32C1803.06 2888.45 1799.16 2882.09 1793.69 2868.59C1792.57 2865.84 1791.44 2863.14 1791.18 2862.59C1790.64 2861.48 1789.66 2859.08 1789.66 2858.88C1789.66 2858.52 1790.25 2858.9 1791.68 2860.17ZM1687.81 2861.17C1688.32 2862.32 1689.23 2864.31 1689.83 2865.59C1691.07 2868.24 1695.4 2877.71 1697.98 2883.43C1698.94 2885.54 1700.21 2888.32 1700.82 2889.6C1701.42 2890.89 1702.64 2893.51 1703.51 2895.44C1704.39 2897.36 1705.6 2899.99 1706.2 2901.27C1709.35 2908.03 1710.99 2911.89 1710.99 2912.57C1710.99 2913.36 1709.56 2917.25 1709.03 2917.9C1708.86 2918.11 1708.53 2918.92 1708.3 2919.71C1708.06 2920.49 1707.73 2921.09 1707.55 2921.02C1707.37 2920.97 1705.81 2917.55 1704.09 2913.43C1700.85 2905.68 1699.48 2902.42 1698.98 2901.27C1698.56 2900.3 1696.98 2896.54 1694.98 2891.77C1694.03 2889.48 1693.05 2887.15 1692.81 2886.6C1688.95 2877.76 1688.45 2875.98 1687.33 2867.36C1686.16 2858.27 1686.24 2859.09 1686.6 2859.09C1686.76 2859.09 1687.31 2860.03 1687.81 2861.17ZM1752.62 2861.99C1755.76 2865.33 1755.67 2864.56 1753.66 2870.76C1752.97 2872.87 1752.31 2875.09 1752.18 2875.68C1751.68 2877.94 1750.35 2879.59 1749.94 2878.46C1749.83 2878.16 1748.47 2876.55 1745.76 2873.5C1744.12 2871.66 1744.09 2871.99 1746.34 2866.26C1748.24 2861.43 1749.31 2859.09 1749.65 2859.09C1749.78 2859.09 1751.12 2860.39 1752.62 2861.99ZM1826.1 2863.6C1827.24 2864.43 1830.7 2866.98 1833.8 2869.27C1836.9 2871.56 1839.53 2873.43 1839.64 2873.43C1840.08 2873.43 1842.31 2875.72 1843.7 2877.59C1844.51 2878.69 1846.37 2881.11 1847.84 2882.98C1851.67 2887.85 1855.32 2892.58 1856.67 2894.42C1857.31 2895.29 1858.55 2896.92 1859.42 2898.03C1860.29 2899.15 1861.01 2900.29 1861.01 2900.57C1861.01 2900.88 1859.83 2901.64 1857.92 2902.55C1854.27 2904.3 1852.92 2904.91 1852.61 2904.93C1852.49 2904.94 1851.4 2903.59 1850.19 2901.94C1848.98 2900.29 1847.8 2898.71 1847.58 2898.43C1846.87 2897.56 1842.53 2891.71 1840.82 2889.3C1839.91 2888.04 1838.93 2886.75 1838.64 2886.44C1838.34 2886.13 1837.6 2885.13 1836.98 2884.24C1836.36 2883.34 1834.95 2881.42 1833.85 2879.97C1832.74 2878.53 1831.61 2877 1831.33 2876.58C1830.73 2875.67 1828.11 2872.06 1825.94 2869.16C1824.8 2867.62 1824.27 2866.54 1824 2865.15C1823.79 2864.11 1823.55 2863 1823.46 2862.68C1823.19 2861.74 1823.89 2861.99 1826.1 2863.6ZM1775.69 2864.51C1778.07 2866.76 1778.65 2867.62 1779.02 2869.43C1779.15 2870.07 1780.26 2874.5 1781.49 2879.27C1782.72 2884.03 1784.04 2889.17 1784.43 2890.68C1784.81 2892.18 1785.01 2893.53 1784.88 2893.67C1784.62 2893.93 1779.09 2888.49 1776.07 2885C1774.11 2882.74 1773.45 2881.48 1772.97 2879.04C1772.61 2877.23 1772.5 2863.28 1772.85 2862.73C1773.17 2862.2 1773.44 2862.37 1775.69 2864.51ZM1738.45 2866.92C1741.36 2870.23 1742.31 2871.81 1742.32 2873.33C1742.32 2874.11 1741.26 2876.95 1739.84 2879.93C1739.06 2881.58 1738.22 2883.53 1737.99 2884.27C1737.76 2885 1737.46 2885.75 1737.33 2885.93C1737.19 2886.12 1736.98 2886.69 1736.86 2887.21C1736.73 2887.73 1736.47 2888.09 1736.27 2888.03C1736.06 2887.96 1734.39 2885.59 1732.54 2882.75C1728.48 2876.53 1728.37 2875.95 1730.42 2871.67C1731.1 2870.25 1731.66 2869.02 1731.66 2868.95C1731.66 2868.88 1732.25 2867.53 1732.99 2865.93C1733.84 2864.08 1734.48 2863.08 1734.77 2863.15C1735.03 2863.21 1736.68 2864.9 1738.45 2866.92ZM1757.76 2867.51C1758.65 2868.71 1758.64 2868.9 1757.16 2879.49C1756.88 2881.45 1756.66 2883.51 1756.66 2884.08C1756.66 2884.64 1756.53 2885.1 1756.37 2885.1C1756.22 2885.1 1755.17 2884.13 1754.04 2882.93C1751.75 2880.51 1751.65 2880.11 1752.63 2877.38C1752.98 2876.4 1753.91 2873.53 1754.71 2871.01C1755.51 2868.48 1756.34 2866.43 1756.56 2866.43C1756.78 2866.43 1757.32 2866.91 1757.76 2867.51ZM1784.08 2871.82C1794.39 2880.94 1800.82 2888.73 1805.23 2897.41C1806.87 2900.64 1810.12 2907.78 1810.82 2909.69C1811.07 2910.38 1812.34 2913.42 1813.64 2916.44C1814.94 2919.47 1816 2922.26 1816 2922.64C1816 2923.57 1814.64 2924.31 1813.79 2923.84C1812.99 2923.4 1797.48 2907.71 1794.67 2904.5C1793.49 2903.16 1792.08 2901.43 1791.52 2900.67C1790.97 2899.9 1790.43 2899.2 1790.32 2899.11C1790.12 2898.94 1788.28 2895.67 1787.03 2893.26C1785.31 2889.94 1783 2882.3 1781.15 2873.82C1780.23 2869.61 1780.18 2869.09 1780.66 2869.09C1780.85 2869.09 1782.39 2870.32 1784.08 2871.82ZM1826.53 2871.85C1827.06 2872.63 1830.27 2877.01 1833.67 2881.6C1837.07 2886.18 1840.07 2890.26 1840.34 2890.65C1840.61 2891.04 1841.81 2892.66 1843 2894.24C1846.78 2899.24 1849.03 2902.23 1850.03 2903.57C1851.24 2905.19 1851.24 2905.49 1850.04 2906.2C1848.77 2906.95 1848.35 2906.93 1847.28 2906.03C1846.79 2905.61 1846.04 2904.99 1845.61 2904.64C1845.19 2904.29 1844.3 2903.54 1843.65 2902.97C1842.99 2902.4 1842.02 2901.58 1841.48 2901.13C1840.94 2900.69 1838.85 2898.89 1836.84 2897.14C1834.82 2895.38 1832.72 2893.57 1832.17 2893.11C1829.55 2890.92 1828.39 2889.53 1828.03 2888.19C1827.39 2885.82 1825 2872.03 1825 2870.71C1825 2870.05 1825.64 2870.52 1826.53 2871.85ZM1744.28 2873.74C1744.61 2873.91 1745.76 2875.13 1746.85 2876.44C1747.93 2877.75 1749.16 2879.2 1749.57 2879.65C1749.99 2880.1 1750.32 2880.67 1750.32 2880.92C1750.32 2881.17 1749.78 2883.08 1749.11 2885.16C1748.44 2887.24 1747.12 2891.41 1746.17 2894.44C1745.07 2897.93 1744.27 2899.97 1743.97 2900.02C1743.7 2900.07 1743.05 2899.37 1742.49 2898.42C1741.94 2897.5 1740.55 2895.3 1739.41 2893.53C1738.26 2891.77 1737.32 2890.14 1737.32 2889.9C1737.32 2889.34 1739.17 2884.33 1741.24 2879.26C1742.14 2877.05 1742.98 2874.84 1743.11 2874.34C1743.36 2873.33 1743.44 2873.29 1744.28 2873.74ZM1771.99 2878.26C1771.99 2878.72 1771.84 2879.1 1771.66 2879.1C1771.29 2879.1 1771.2 2878 1771.55 2877.65C1771.92 2877.29 1771.99 2877.39 1771.99 2878.26ZM1730.08 2880.85C1736.25 2890.19 1736.18 2889.56 1732.14 2899.53C1731.27 2901.69 1730.38 2903.41 1730.19 2903.34C1729.88 2903.24 1727.21 2899.05 1723.47 2892.77C1722.97 2891.95 1722.57 2890.89 1722.56 2890.44C1722.55 2889.73 1723.9 2886.43 1727.03 2879.52C1727.38 2878.74 1727.8 2878.1 1727.97 2878.1C1728.13 2878.1 1729.08 2879.34 1730.08 2880.85ZM1848.58 2880.02C1849.67 2880.89 1851.42 2882.2 1852.46 2882.93C1853.5 2883.67 1856.19 2885.62 1858.45 2887.27C1865.57 2892.48 1867.13 2893.62 1868.76 2894.77C1870.51 2896.01 1870.73 2896.64 1869.56 2897.09C1869.13 2897.25 1867.5 2898 1865.94 2898.75C1864.38 2899.49 1862.96 2900.11 1862.79 2900.11C1862.62 2900.11 1861.89 2899.33 1861.17 2898.39C1860.45 2897.44 1859.7 2896.51 1859.5 2896.3C1859.3 2896.1 1858.7 2895.32 1858.16 2894.56C1856.31 2891.98 1853.44 2888.25 1852.64 2887.37C1852.2 2886.89 1850.74 2885 1849.41 2883.16C1848.07 2881.33 1846.76 2879.64 1846.49 2879.42C1845.95 2878.97 1845.84 2878.43 1846.29 2878.43C1846.45 2878.43 1847.48 2879.14 1848.58 2880.02ZM1771.7 2886.29C1772.05 2894.04 1772.03 2902.44 1771.66 2902.44C1771.47 2902.44 1770.99 2902.05 1770.57 2901.56C1770.16 2901.08 1769.6 2900.45 1769.33 2900.17C1768.71 2899.53 1768.77 2896.27 1769.48 2891.5C1769.74 2889.72 1770.05 2886.92 1770.17 2885.27C1770.42 2881.76 1770.52 2881.33 1771.08 2881.52C1771.37 2881.61 1771.56 2883.03 1771.7 2886.29ZM1753.76 2884.31C1755.09 2885.73 1755.75 2886.71 1755.87 2887.51C1756.04 2888.51 1755.66 2891.74 1754.33 2900.77C1754.15 2901.97 1753.77 2904.82 1753.48 2907.11C1752.71 2913.14 1752.66 2913.45 1752.34 2913.45C1752.19 2913.45 1751.57 2912.66 1750.97 2911.69C1750.37 2910.73 1748.85 2908.37 1747.6 2906.44C1746.11 2904.13 1745.33 2902.6 1745.32 2901.94C1745.3 2900.56 1751.08 2882.07 1751.49 2882.18C1751.67 2882.23 1752.69 2883.19 1753.76 2884.31ZM1773.99 2884.11C1773.99 2884.3 1774.48 2884.95 1775.08 2885.56C1780.75 2891.33 1785.37 2896.19 1785.77 2896.83C1786.29 2897.63 1787.2 2900.97 1790.66 2914.61C1791.77 2919.01 1793 2923.71 1793.39 2925.04C1794.46 2928.72 1794.24 2928.66 1790.5 2924.26C1788.89 2922.38 1788.21 2921.61 1782.63 2915.42C1781.24 2913.88 1779.39 2911.79 1778.52 2910.78C1777.65 2909.77 1776.16 2908.07 1775.22 2907C1774.27 2905.93 1773.39 2904.81 1773.27 2904.5C1773.14 2904.19 1773.03 2899.4 1773.02 2893.85C1773 2885.1 1773.06 2883.77 1773.49 2883.77C1773.77 2883.77 1773.99 2883.92 1773.99 2884.11ZM1690.98 2884.59C1690.98 2884.86 1691.72 2886.85 1692.62 2889.01C1693.52 2891.17 1695.1 2894.96 1696.13 2897.44C1697.16 2899.92 1698.21 2902.39 1698.47 2902.94C1699.03 2904.12 1702.72 2912.91 1705.03 2918.59C1705.92 2920.78 1706.65 2922.78 1706.65 2923.04C1706.65 2923.29 1705.81 2925.4 1704.77 2927.73C1703.74 2930.05 1702.65 2932.66 1702.36 2933.53C1701.52 2935.99 1700.9 2935.66 1699.82 2932.2C1698.06 2926.56 1697.69 2925.25 1696.69 2921.12C1694.65 2912.66 1691.53 2896.11 1690.65 2889.1C1690.5 2887.91 1690.27 2886.3 1690.14 2885.52C1689.94 2884.33 1689.99 2884.1 1690.44 2884.1C1690.74 2884.1 1690.98 2884.32 1690.98 2884.59ZM1808.95 2895.56C1811.27 2897.83 1813.99 2900.41 1815 2901.28C1816.01 2902.16 1816.98 2903.12 1817.15 2903.41C1817.48 2903.97 1819.25 2915.43 1819.56 2919.03C1819.77 2921.36 1819.41 2922.12 1818.14 2922.12C1817.3 2922.12 1817.02 2921.63 1814.66 2916.11C1814.07 2914.74 1813.32 2913.01 1812.99 2912.28C1812.66 2911.54 1811.12 2908.02 1809.56 2904.44C1808 2900.87 1806.34 2897.04 1805.86 2895.94C1805.38 2894.84 1804.76 2893.54 1804.49 2893.05C1803.9 2892 1803.86 2891.44 1804.37 2891.44C1804.57 2891.44 1806.64 2893.29 1808.95 2895.56ZM1738.57 2894.11C1742.05 2899.31 1742.73 2900.68 1742.89 2902.86C1743.01 2904.53 1742.87 2905.44 1742.16 2907.44C1741.68 2908.82 1740.78 2911.52 1740.17 2913.45C1739.55 2915.4 1738.86 2916.99 1738.61 2917.04C1738.34 2917.09 1736.76 2914.81 1734.68 2911.37L1731.21 2905.62L1731.73 2903.78C1732.01 2902.77 1732.7 2900.82 1733.25 2899.44C1733.8 2898.06 1734.56 2896.19 1734.93 2895.27C1735.3 2894.35 1735.76 2893.18 1735.96 2892.66C1736.16 2892.14 1736.51 2891.78 1736.74 2891.85C1736.96 2891.93 1737.79 2892.94 1738.57 2894.11ZM1722.36 2893.02C1725.13 2897.71 1728.24 2902.84 1728.92 2903.87C1729.71 2905.05 1729.73 2905.21 1729.31 2906.53C1729.07 2907.31 1728.78 2908.09 1728.66 2908.28C1728.55 2908.46 1728.11 2909.51 1727.69 2910.61C1726.4 2913.96 1724.3 2919.16 1723.28 2921.48C1722.75 2922.69 1721.96 2924.71 1721.51 2925.98C1721.06 2927.27 1720.51 2928.28 1720.26 2928.28C1719.77 2928.28 1717.03 2922.99 1715.1 2918.32C1713.96 2915.55 1713.84 2915 1713.83 2912.11C1713.82 2909.18 1713.9 2908.77 1714.95 2906.61C1717.53 2901.29 1719.43 2897.12 1720.39 2894.69C1720.95 2893.27 1721.51 2892.1 1721.62 2892.11C1721.73 2892.11 1722.06 2892.52 1722.36 2893.02ZM1829.95 2893.96C1830.26 2894.65 1835.92 2903.39 1839.58 2908.85C1840.04 2909.53 1840.33 2910.32 1840.22 2910.6C1840.02 2911.11 1833.56 2914.45 1832.77 2914.45C1832.55 2914.45 1832.29 2913.96 1832.19 2913.36C1832.09 2912.77 1831.57 2909.65 1831.02 2906.44C1829.58 2897.93 1829 2894.26 1829 2893.65C1829 2892.83 1829.51 2893 1829.95 2893.96ZM1833.57 2895.69C1836.86 2898.56 1838.5 2899.99 1838.81 2900.29C1839.01 2900.48 1840.14 2901.44 1841.34 2902.42C1845.18 2905.6 1847 2907.23 1847 2907.48C1847 2907.92 1843.24 2909.78 1842.36 2909.78C1841.79 2909.77 1841.31 2909.47 1840.92 2908.86C1840.6 2908.36 1839.93 2907.31 1839.42 2906.54C1838.92 2905.77 1837.83 2904.05 1837.01 2902.71C1836.19 2901.37 1835.43 2900.2 1835.31 2900.11C1835.07 2899.92 1832.34 2895.44 1832.34 2895.24C1832.34 2894.92 1832.95 2895.15 1833.57 2895.69ZM1789 2899.74C1789 2899.9 1789.63 2900.7 1790.41 2901.52C1791.19 2902.33 1796.41 2907.76 1802 2913.59C1807.59 2919.41 1812.17 2924.4 1812.17 2924.68C1812.17 2925.22 1810.22 2926.41 1805 2929.07C1803.26 2929.96 1801.1 2931.09 1800.2 2931.57C1798.07 2932.72 1797.5 2932.69 1796.83 2931.37C1795.62 2929 1792.81 2919.49 1790.84 2911.11C1790.52 2909.74 1790.13 2908.16 1789.96 2907.61C1789.71 2906.75 1788.9 2903.4 1788.19 2900.36C1788.04 2899.67 1788.11 2899.44 1788.49 2899.44C1788.77 2899.44 1789 2899.57 1789 2899.74ZM1770.44 2903.37C1771.74 2904.84 1772 2905.36 1772.03 2906.54C1772.04 2907.31 1772.11 2912.52 1772.17 2918.11C1772.23 2923.71 1772.37 2932 1772.48 2936.54C1772.6 2941.78 1772.56 2944.79 1772.35 2944.79C1772.03 2944.79 1771.69 2944.31 1767.39 2937.52C1765.1 2933.91 1764.99 2933.65 1764.99 2931.74C1764.99 2930.63 1765.22 2927.91 1765.49 2925.67C1767.27 2911.06 1768 2904.7 1767.99 2903.55C1767.99 2902.33 1768.3 2901.37 1768.65 2901.51C1768.78 2901.56 1769.58 2902.4 1770.44 2903.37ZM1746.49 2906.69C1747.34 2908.11 1748.37 2909.77 1748.77 2910.38C1751.99 2915.29 1751.99 2915.29 1751.99 2917.32C1752 2919.74 1748.75 2933.12 1748.16 2933.12C1747.95 2933.12 1747.32 2932.41 1746.78 2931.54C1739.36 2919.7 1739.34 2919.64 1741.11 2913.78C1743.3 2906.53 1744.16 2904.12 1744.54 2904.11C1744.75 2904.11 1745.63 2905.27 1746.49 2906.69ZM1734.05 2912.55C1735.83 2915.55 1737.46 2918.39 1737.69 2918.88C1738.12 2919.84 1737.85 2921 1735.42 2928.45C1734.8 2930.38 1733.85 2933.34 1733.31 2935.04C1732.78 2936.74 1731.89 2939.51 1731.35 2941.21C1730.8 2942.9 1730.19 2944.93 1729.99 2945.71C1729.37 2948.15 1728.71 2947.65 1726.38 2942.97C1722.39 2934.96 1721.36 2931.55 1721.95 2928.36C1722.28 2926.55 1723.77 2922.28 1724.29 2921.64C1724.79 2921.03 1729.99 2908.15 1729.99 2907.53C1729.99 2906.24 1731.17 2907.7 1734.05 2912.55ZM1775.75 2909.19C1776.76 2910.34 1778.92 2912.79 1780.54 2914.63C1782.17 2916.48 1784.76 2919.41 1786.3 2921.14C1787.84 2922.87 1789.51 2924.75 1790.02 2925.33C1790.53 2925.9 1791.51 2927.18 1792.21 2928.16C1792.92 2929.15 1793.75 2930.24 1794.06 2930.58C1794.37 2930.93 1794.88 2931.73 1795.18 2932.37C1795.85 2933.77 1795.76 2933.89 1792.65 2935.54C1791.45 2936.18 1789.65 2937.16 1788.65 2937.71C1787.65 2938.26 1784.8 2939.75 1782.33 2941.04C1779.85 2942.32 1777.09 2943.76 1776.18 2944.25C1775.12 2944.82 1774.42 2945.02 1774.22 2944.81C1773.82 2944.41 1773.77 2943.17 1773.49 2923.2C1773.34 2912.91 1773.37 2907.11 1773.58 2907.11C1773.76 2907.11 1774.73 2908.05 1775.75 2909.19ZM1712.82 2915.8C1712.94 2916.17 1713.83 2918.16 1714.8 2920.22C1717.71 2926.38 1718.55 2928.24 1718.82 2929.12C1718.96 2929.58 1719.21 2930.13 1719.38 2930.34C1719.67 2930.7 1718.4 2934.55 1716.64 2938.66C1715.92 2940.32 1715.17 2940.55 1714.83 2939.21C1714.63 2938.41 1713.99 2936.85 1712.14 2932.62C1710.73 2929.39 1709.61 2926.71 1708.97 2924.98C1708.12 2922.72 1708.14 2922.61 1710.26 2917.87C1711.51 2915.06 1712.37 2914.36 1712.82 2915.8ZM1739.89 2922.03C1740.01 2922.35 1741.09 2924.24 1742.3 2926.23C1746.58 2933.31 1747.66 2935.23 1747.66 2935.83C1747.66 2936.35 1744.57 2948.21 1743.1 2953.3C1742.84 2954.21 1742.42 2955.79 1742.17 2956.8C1741.13 2961.07 1740.82 2961.56 1738.49 2962.8C1737.31 2963.42 1736.29 2963.87 1736.21 2963.78C1735.99 2963.52 1732.32 2955.86 1732.32 2955.64C1732.32 2955.53 1731.8 2954.38 1731.16 2953.08C1730.02 2950.78 1729.65 2948.63 1730.28 2947.94C1730.44 2947.77 1731.28 2945.3 1732.15 2942.46C1733.02 2939.61 1734.08 2936.24 1734.5 2934.95C1734.93 2933.67 1735.89 2930.59 1736.65 2928.12C1738.21 2922.99 1738.83 2921.45 1739.33 2921.45C1739.52 2921.45 1739.77 2921.71 1739.89 2922.03ZM1707.99 2925.72C1707.99 2926.05 1708.12 2926.46 1708.28 2926.63C1708.45 2926.81 1709.36 2928.83 1710.32 2931.12C1711.28 2933.41 1712.74 2936.89 1713.56 2938.85L1715.06 2942.42L1713.5 2946.52C1712.65 2948.78 1711.68 2951.23 1711.35 2951.96C1711.02 2952.69 1710.55 2953.9 1710.32 2954.63C1710.09 2955.36 1709.79 2956.11 1709.65 2956.3C1709.51 2956.48 1709.29 2957.12 1709.16 2957.71C1709.04 2958.31 1708.72 2958.8 1708.47 2958.8C1708.02 2958.8 1707.39 2956.94 1704.1 2945.96C1703.45 2943.76 1702.61 2941.19 1702.24 2940.25C1701.59 2938.6 1701.6 2936.12 1702.27 2936.12C1702.4 2936.12 1702.72 2935.56 1702.96 2934.87C1703.37 2933.73 1704.63 2930.75 1706.44 2926.7C1707.14 2925.12 1707.99 2924.58 1707.99 2925.72ZM1697.99 2929.2C1697.99 2929.61 1698.44 2931.44 1698.99 2933.26C1699.54 2935.08 1699.98 2937.19 1699.98 2937.96C1699.98 2938.86 1700.21 2939.62 1700.62 2940.09C1701.16 2940.71 1703.23 2946.72 1704.71 2951.96C1704.92 2952.69 1705.35 2954.12 1705.67 2955.13C1707.27 2960.17 1707.43 2961.1 1707 2962.56C1706.32 2964.87 1703.89 2970.8 1703.63 2970.8C1703.49 2970.8 1703.28 2970.01 1703.16 2969.05C1703.05 2968.09 1702.81 2966.55 1702.64 2965.63C1702.46 2964.72 1702.03 2961.64 1701.66 2958.8C1701.3 2955.95 1700.7 2951.6 1700.33 2949.13C1699.88 2946.14 1699.72 2943.93 1699.86 2942.57C1700.04 2940.82 1699.97 2940.38 1699.41 2939.67C1699.01 2939.16 1698.59 2937.79 1698.34 2936.22C1698.12 2934.79 1697.79 2932.9 1697.62 2932.02C1697.22 2929.93 1697.23 2928.45 1697.65 2928.45C1697.83 2928.45 1697.99 2928.79 1697.99 2929.2ZM1721.51 2934.54C1721.83 2935.5 1723.21 2938.69 1724.57 2941.62C1728.04 2949.08 1727.94 2948.86 1728.18 2949.87C1728.37 2950.69 1727.21 2954.94 1725.4 2960.05C1724.93 2961.37 1723.99 2962.02 1723.99 2961.02C1723.99 2960.77 1723.78 2960.13 1723.52 2959.6C1723.26 2959.07 1722.5 2957.28 1721.82 2955.63C1721.15 2953.98 1720.4 2952.18 1720.15 2951.63C1718.13 2947.13 1716.65 2943.23 1716.65 2942.43C1716.65 2941.49 1719.42 2934.02 1720.07 2933.2C1720.64 2932.48 1720.92 2932.74 1721.51 2934.54ZM1749.66 2934.79C1749.66 2934.97 1749.51 2935.12 1749.32 2935.12C1749.14 2935.12 1748.99 2934.97 1748.99 2934.79C1748.99 2934.6 1749.14 2934.45 1749.32 2934.45C1749.51 2934.45 1749.66 2934.6 1749.66 2934.79ZM1766.86 2938.71C1767.9 2940.31 1769.09 2942.15 1769.51 2942.79C1770.78 2944.72 1771.48 2946.44 1771.14 2946.77C1770.73 2947.17 1763.66 2950.79 1763.28 2950.79C1762.86 2950.79 1762.92 2948.92 1763.51 2943.46C1764.31 2936.03 1764.35 2935.79 1764.68 2935.79C1764.85 2935.79 1765.83 2937.1 1766.86 2938.71ZM1749.07 2938.21C1749.16 2938.44 1749.03 2939.97 1748.78 2941.62C1748.53 2943.27 1748.1 2946.65 1747.82 2949.13C1747.54 2951.6 1747.12 2954.74 1746.89 2956.1C1746.5 2958.48 1746.43 2958.61 1745.15 2959.34C1743.67 2960.19 1742.65 2960.34 1742.66 2959.71C1742.67 2959.24 1744.1 2953.77 1745.64 2948.29C1746.53 2945.11 1747.59 2941.01 1748.16 2938.54C1748.35 2937.72 1748.83 2937.54 1749.07 2938.21ZM1716.48 2945.88C1716.74 2946.47 1717.43 2948.08 1717.99 2949.46C1718.56 2950.84 1719.23 2952.41 1719.48 2952.96C1720.36 2954.91 1721.62 2957.99 1722.35 2959.96C1722.75 2961.06 1723.29 2962.26 1723.54 2962.62C1724.27 2963.7 1724.22 2963.97 1722.23 2969.85C1721.59 2971.73 1721.59 2971.73 1717.87 2973.69C1715.83 2974.76 1713.95 2975.64 1713.71 2975.64C1713.13 2975.64 1712.01 2972.48 1709.61 2964.14C1708.93 2961.78 1708.81 2960.28 1709.29 2959.98C1709.46 2959.87 1709.78 2959.23 1710.01 2958.54C1710.39 2957.36 1714.3 2947.14 1714.98 2945.54C1715.43 2944.5 1715.91 2944.61 1716.48 2945.88ZM1730.1 2953.42C1730.3 2954.44 1732.01 2958.13 1733.66 2961.09C1734.85 2963.24 1734.91 2964.12 1733.91 2965.04C1732.96 2965.91 1728.53 2968.13 1727.74 2968.13C1726.98 2968.13 1725.65 2965.31 1725.65 2963.7C1725.65 2963.05 1725.94 2961.72 1726.3 2960.74C1726.65 2959.77 1727.34 2957.69 1727.83 2956.13C1729.03 2952.33 1729.72 2951.51 1730.1 2953.42ZM1708.65 2964.95C1708.65 2965.22 1709.42 2967.72 1710.35 2970.5C1712.05 2975.56 1712.05 2975.56 1711.4 2976.43C1710.66 2977.42 1706.77 2979.73 1705.36 2980.01C1704.45 2980.2 1704.41 2980.14 1704.2 2978.62C1703.7 2974.95 1703.91 2973.45 1705.51 2969.63C1706.35 2967.61 1707.17 2965.63 1707.34 2965.22C1707.67 2964.38 1708.65 2964.19 1708.65 2964.95ZM1725.19 2967.05C1725.43 2967.37 1725.64 2968.12 1725.64 2968.71C1725.65 2969.59 1725.5 2969.83 1724.81 2970C1724.34 2970.12 1723.87 2970.13 1723.77 2970.03C1723.57 2969.83 1724.35 2966.47 1724.6 2966.47C1724.68 2966.47 1724.95 2966.73 1725.19 2967.05ZM1688.82 2971.05C1688.94 2971.92 1689.17 2973.45 1689.34 2974.45C1689.72 2976.64 1689.73 2977.14 1689.4 2977.14C1688.9 2977.13 1687.46 2970.79 1687.77 2969.97C1688.14 2969 1688.61 2969.48 1688.82 2971.05ZM1687.21 2974.39C1687.42 2975.07 1688 2977.21 1688.49 2979.14C1689.31 2982.36 1689.35 2982.83 1689 2984.97C1688.79 2986.24 1688.38 2987.56 1688.08 2987.88C1687.17 2988.9 1678.43 2993.71 1678.11 2993.38C1678.03 2993.3 1678.34 2992.48 1678.81 2991.56C1679.27 2990.64 1679.65 2989.78 1679.65 2989.66C1679.65 2989.54 1680.55 2987.36 1681.65 2984.81C1682.75 2982.26 1683.65 2980.08 1683.65 2979.96C1683.65 2979.85 1684.16 2978.53 1684.78 2977.03C1685.41 2975.53 1686 2974.04 1686.11 2973.72C1686.4 2972.8 1686.79 2973.03 1687.21 2974.39ZM1832.47 3001.23C1832.8 3003.48 1833.3 3006.26 1833.58 3007.42C1833.88 3008.64 1833.97 3009.64 1833.8 3009.81C1833.63 3009.96 1830.8 3010.94 1827.5 3011.98C1824.2 3013.03 1816.62 3015.46 1810.67 3017.38C1804.71 3019.31 1798.86 3021.19 1797.66 3021.56C1795.35 3022.27 1768.79 3030.99 1759.72 3034.01C1754.53 3035.74 1754.24 3035.8 1753.31 3035.32C1752.15 3034.72 1752.08 3033.96 1752.7 3028.51C1752.98 3026.05 1753.24 3025.03 1753.69 3024.63C1754.03 3024.32 1756.22 3023.44 1758.56 3022.65C1760.91 3021.87 1766.13 3020.07 1770.16 3018.65C1774.19 3017.24 1779.74 3015.29 1782.5 3014.32C1787.36 3012.62 1791.61 3011.13 1800.5 3007.98C1802.88 3007.14 1806.48 3005.87 1808.5 3005.17C1813.31 3003.5 1828.6 2997.98 1829.67 2997.54C1831.75 2996.67 1831.83 2996.78 1832.47 3001.23ZM1736.66 3031.33C1737.07 3031.82 1736.96 3035.56 1736.44 3039.43C1736.19 3041.27 1735.81 3041.51 1730.66 3043.02C1728.36 3043.7 1725.1 3044.68 1723.4 3045.21C1719.89 3046.3 1718.85 3046.37 1717.08 3045.66C1715.17 3044.89 1714.15 3043.18 1714.15 3040.71C1714.15 3038.71 1714.16 3038.7 1715.32 3038.3C1717.37 3037.59 1727.71 3033.77 1730.82 3032.57C1735.78 3030.65 1736.05 3030.59 1736.66 3031.33ZM1826.17 3061.98C1829.63 3063.29 1831.67 3065.4 1831.67 3067.7C1831.67 3069.38 1829.34 3081.73 1825.83 3098.69C1824.99 3102.72 1824.09 3107.21 1823.83 3108.66C1823.56 3110.1 1823.27 3111.53 1823.18 3111.82C1822.9 3112.75 1821.06 3123.56 1820.64 3126.7C1819.92 3132.2 1820.02 3132.14 1811.91 3132.71C1800.03 3133.55 1793.81 3133.65 1790 3133.08C1788.07 3132.79 1784.47 3132.39 1782 3132.19C1775.06 3131.62 1770.93 3130.47 1769.9 3128.81C1769.63 3128.38 1768.85 3125.33 1768.17 3122.03C1767.49 3118.73 1766.74 3115.28 1766.49 3114.36C1766.24 3113.44 1765.87 3111.72 1765.66 3110.53C1765.45 3109.33 1764.99 3107.08 1764.64 3105.52C1764.29 3103.96 1763.4 3099.84 1762.66 3096.35C1761.92 3092.87 1761.02 3088.67 1760.65 3087.02C1757.78 3074.1 1757.58 3073 1757.75 3071.1C1758.04 3067.96 1760.28 3064.94 1763.73 3063.03C1767.11 3061.16 1766.47 3061.2 1796.66 3061.27C1823.06 3061.34 1824.59 3061.38 1826.17 3061.98ZM1681.73 3063.86C1684.16 3064.56 1685.8 3066.28 1690.1 3072.63C1691.54 3074.76 1691.65 3075.07 1691.65 3077.05C1691.65 3081.79 1689.16 3092 1683.98 3108.52C1682.91 3111.92 1681.49 3116.49 1680.82 3118.7C1680.14 3120.9 1679.31 3123.6 1678.97 3124.7C1678.63 3125.8 1678.25 3127.3 1678.12 3128.03C1677.81 3129.85 1677.5 3130.36 1676.24 3131.15C1674.39 3132.28 1669.5 3132.91 1660.31 3133.16C1650.3 3133.45 1641.83 3133.13 1634.56 3132.21C1627.17 3131.27 1624.09 3130.09 1623.57 3128C1623.44 3127.47 1622.87 3125.16 1622.31 3122.86C1621.74 3120.57 1620.92 3117.49 1620.49 3116.03C1619.79 3113.65 1618.29 3108.5 1616.75 3103.19C1615.75 3099.74 1613.99 3092.35 1613.32 3088.85C1611.93 3081.47 1611.82 3077.69 1612.94 3074.75C1613.34 3073.7 1618 3068.08 1620.29 3065.88C1623.39 3062.91 1620.73 3063.12 1652.59 3063.36C1668.05 3063.47 1681.16 3063.7 1681.73 3063.86Z" fill="#2FC6F5"/>
</svg>
